<svg width="419" height="66" viewBox="0 0 419 66" fill="none" xmlns="http://www.w3.org/2000/svg">
<rect width="419" height="66" rx="26" fill="#1458E4"/>
<path d="M100.918 27.1562H97.1847C97.1165 26.6733 96.9773 26.2443 96.767 25.8693C96.5568 25.4886 96.2869 25.1648 95.9574 24.8977C95.6278 24.6307 95.2472 24.4261 94.8153 24.2841C94.3892 24.142 93.9261 24.071 93.4261 24.071C92.5227 24.071 91.7358 24.2955 91.0653 24.7443C90.3949 25.1875 89.875 25.8352 89.5057 26.6875C89.1364 27.5341 88.9517 28.5625 88.9517 29.7727C88.9517 31.017 89.1364 32.0625 89.5057 32.9091C89.8807 33.7557 90.4034 34.3949 91.0739 34.8267C91.7443 35.2585 92.5199 35.4744 93.4006 35.4744C93.8949 35.4744 94.3523 35.4091 94.7727 35.2784C95.1989 35.1477 95.5767 34.9574 95.9062 34.7074C96.2358 34.4517 96.5085 34.142 96.7244 33.7784C96.946 33.4148 97.0994 33 97.1847 32.5341L100.918 32.5511C100.821 33.3523 100.58 34.125 100.193 34.8693C99.8125 35.608 99.2983 36.2699 98.6506 36.8551C98.0085 37.4347 97.2415 37.8949 96.3494 38.2358C95.4631 38.571 94.4602 38.7386 93.3409 38.7386C91.7841 38.7386 90.392 38.3864 89.1648 37.6818C87.9432 36.9773 86.9773 35.9574 86.267 34.6222C85.5625 33.2869 85.2102 31.6705 85.2102 29.7727C85.2102 27.8693 85.5682 26.25 86.2841 24.9148C87 23.5795 87.9716 22.5625 89.1989 21.8636C90.4261 21.1591 91.8068 20.8068 93.3409 20.8068C94.3523 20.8068 95.2898 20.9489 96.1534 21.233C97.0227 21.517 97.7926 21.9318 98.4631 22.4773C99.1335 23.017 99.679 23.679 100.099 24.4631C100.526 25.2472 100.798 26.1449 100.918 27.1562ZM109.411 38.7557C108.087 38.7557 106.942 38.4744 105.976 37.9119C105.016 37.3437 104.274 36.554 103.751 35.5426C103.229 34.5256 102.967 33.3466 102.967 32.0057C102.967 30.6534 103.229 29.4716 103.751 28.4602C104.274 27.4432 105.016 26.6534 105.976 26.0909C106.942 25.5227 108.087 25.2386 109.411 25.2386C110.734 25.2386 111.876 25.5227 112.837 26.0909C113.803 26.6534 114.547 27.4432 115.07 28.4602C115.592 29.4716 115.854 30.6534 115.854 32.0057C115.854 33.3466 115.592 34.5256 115.07 35.5426C114.547 36.554 113.803 37.3437 112.837 37.9119C111.876 38.4744 110.734 38.7557 109.411 38.7557ZM109.428 35.9432C110.03 35.9432 110.533 35.7727 110.936 35.4318C111.339 35.0852 111.643 34.6136 111.848 34.017C112.058 33.4205 112.163 32.7415 112.163 31.9801C112.163 31.2188 112.058 30.5398 111.848 29.9432C111.643 29.3466 111.339 28.875 110.936 28.5284C110.533 28.1818 110.03 28.0085 109.428 28.0085C108.82 28.0085 108.308 28.1818 107.893 28.5284C107.484 28.875 107.175 29.3466 106.964 29.9432C106.76 30.5398 106.658 31.2188 106.658 31.9801C106.658 32.7415 106.76 33.4205 106.964 34.017C107.175 34.6136 107.484 35.0852 107.893 35.4318C108.308 35.7727 108.82 35.9432 109.428 35.9432ZM121.845 30.9318V38.5H118.214V25.4091H121.675V27.7188H121.828C122.118 26.9574 122.604 26.3551 123.286 25.9119C123.967 25.4631 124.794 25.2386 125.766 25.2386C126.675 25.2386 127.467 25.4375 128.143 25.8352C128.82 26.233 129.345 26.8011 129.72 27.5398C130.095 28.2727 130.283 29.1477 130.283 30.1648V38.5H126.652V30.8125C126.658 30.0114 126.453 29.3864 126.038 28.9375C125.624 28.483 125.053 28.2557 124.325 28.2557C123.837 28.2557 123.405 28.3608 123.03 28.571C122.661 28.7812 122.371 29.0881 122.161 29.4915C121.956 29.8892 121.851 30.3693 121.845 30.9318ZM136.775 30.9318V38.5H133.144V25.4091H136.604V27.7188H136.758C137.048 26.9574 137.533 26.3551 138.215 25.9119C138.897 25.4631 139.724 25.2386 140.695 25.2386C141.604 25.2386 142.397 25.4375 143.073 25.8352C143.749 26.233 144.275 26.8011 144.65 27.5398C145.025 28.2727 145.212 29.1477 145.212 30.1648V38.5H141.582V30.8125C141.587 30.0114 141.383 29.3864 140.968 28.9375C140.553 28.483 139.982 28.2557 139.255 28.2557C138.766 28.2557 138.335 28.3608 137.96 28.571C137.59 28.7812 137.3 29.0881 137.09 29.4915C136.886 29.8892 136.781 30.3693 136.775 30.9318ZM154.04 38.7557C152.693 38.7557 151.534 38.483 150.562 37.9375C149.597 37.3864 148.852 36.608 148.33 35.6023C147.807 34.5909 147.545 33.3949 147.545 32.0142C147.545 30.6676 147.807 29.4858 148.33 28.4688C148.852 27.4517 149.588 26.6591 150.537 26.0909C151.491 25.5227 152.611 25.2386 153.895 25.2386C154.759 25.2386 155.563 25.3778 156.307 25.6562C157.057 25.929 157.71 26.3409 158.267 26.892C158.83 27.4432 159.267 28.1364 159.58 28.9716C159.892 29.8011 160.048 30.7727 160.048 31.8864V32.8835H148.994V30.6335H156.631C156.631 30.1108 156.517 29.6477 156.29 29.2443C156.063 28.8409 155.747 28.5256 155.344 28.2983C154.946 28.0653 154.483 27.9489 153.955 27.9489C153.403 27.9489 152.915 28.0767 152.489 28.3324C152.068 28.5824 151.739 28.9205 151.5 29.3466C151.261 29.767 151.139 30.2358 151.134 30.7528V32.892C151.134 33.5398 151.253 34.0994 151.491 34.571C151.736 35.0426 152.08 35.4062 152.523 35.6619C152.966 35.9176 153.491 36.0455 154.099 36.0455C154.503 36.0455 154.872 35.9886 155.207 35.875C155.543 35.7614 155.83 35.5909 156.068 35.3636C156.307 35.1364 156.489 34.858 156.614 34.5284L159.972 34.75C159.801 35.5568 159.452 36.2614 158.923 36.8636C158.401 37.4602 157.724 37.9261 156.895 38.2614C156.071 38.5909 155.119 38.7557 154.04 38.7557ZM168.332 38.7557C166.991 38.7557 165.838 38.4716 164.872 37.9034C163.912 37.3295 163.173 36.5341 162.656 35.517C162.145 34.5 161.889 33.3295 161.889 32.0057C161.889 30.6648 162.148 29.4886 162.665 28.4773C163.188 27.4602 163.929 26.6676 164.889 26.0994C165.849 25.5256 166.991 25.2386 168.315 25.2386C169.457 25.2386 170.457 25.446 171.315 25.8608C172.173 26.2756 172.852 26.858 173.352 27.608C173.852 28.358 174.128 29.2386 174.179 30.25H170.753C170.656 29.5966 170.401 29.071 169.986 28.6733C169.577 28.2699 169.04 28.0682 168.375 28.0682C167.812 28.0682 167.321 28.2216 166.901 28.5284C166.486 28.8295 166.162 29.2699 165.929 29.8494C165.696 30.429 165.58 31.1307 165.58 31.9545C165.58 32.7898 165.693 33.5 165.92 34.0852C166.153 34.6705 166.48 35.1165 166.901 35.4233C167.321 35.7301 167.812 35.8835 168.375 35.8835C168.79 35.8835 169.162 35.7983 169.491 35.6278C169.827 35.4574 170.102 35.2102 170.318 34.8864C170.54 34.5568 170.685 34.1619 170.753 33.7017H174.179C174.122 34.7017 173.849 35.5824 173.361 36.3438C172.878 37.0994 172.21 37.6903 171.358 38.1165C170.506 38.5426 169.497 38.7557 168.332 38.7557ZM183.467 25.4091V28.1364H175.583V25.4091H183.467ZM177.373 22.2727H181.004V34.4773C181.004 34.8125 181.055 35.0739 181.157 35.2614C181.259 35.4432 181.401 35.571 181.583 35.6449C181.771 35.7187 181.987 35.7557 182.231 35.7557C182.401 35.7557 182.572 35.7415 182.742 35.7131C182.913 35.679 183.043 35.6534 183.134 35.6364L183.705 38.3381C183.523 38.3949 183.268 38.4602 182.938 38.5341C182.609 38.6136 182.208 38.6619 181.737 38.679C180.862 38.7131 180.094 38.5966 179.435 38.3295C178.782 38.0625 178.273 37.6477 177.91 37.0852C177.546 36.5227 177.367 35.8125 177.373 34.9545V22.2727ZM195.384 38.5L190.389 21.0455H194.42L197.31 33.1733H197.455L200.642 21.0455H204.094L207.273 33.1989H207.426L210.315 21.0455H214.347L209.352 38.5H205.756L202.432 27.0881H202.295L198.98 38.5H195.384ZM218.58 38.7472C217.745 38.7472 217.001 38.6023 216.347 38.3125C215.694 38.017 215.177 37.5824 214.796 37.0085C214.421 36.429 214.234 35.7074 214.234 34.8438C214.234 34.1165 214.367 33.5057 214.634 33.0114C214.901 32.517 215.265 32.1193 215.725 31.8182C216.185 31.517 216.708 31.2898 217.293 31.1364C217.884 30.983 218.504 30.875 219.151 30.8125C219.913 30.733 220.526 30.6591 220.992 30.5909C221.458 30.517 221.796 30.4091 222.006 30.267C222.217 30.125 222.322 29.9148 222.322 29.6364V29.5852C222.322 29.0455 222.151 28.6278 221.81 28.3324C221.475 28.0369 220.998 27.8892 220.379 27.8892C219.725 27.8892 219.205 28.0341 218.819 28.3239C218.433 28.608 218.177 28.9659 218.052 29.3977L214.694 29.125C214.864 28.3295 215.2 27.642 215.7 27.0625C216.2 26.4773 216.844 26.0284 217.634 25.7159C218.43 25.3977 219.35 25.2386 220.396 25.2386C221.123 25.2386 221.819 25.3239 222.484 25.4943C223.154 25.6648 223.748 25.929 224.265 26.2869C224.788 26.6449 225.2 27.1051 225.501 27.6676C225.802 28.2244 225.952 28.892 225.952 29.6705V38.5H222.509V36.6847H222.407C222.197 37.0938 221.915 37.4545 221.563 37.767C221.211 38.0739 220.788 38.3153 220.293 38.4915C219.799 38.6619 219.228 38.7472 218.58 38.7472ZM219.62 36.2415C220.154 36.2415 220.626 36.1364 221.035 35.9261C221.444 35.7102 221.765 35.4205 221.998 35.0568C222.231 34.6932 222.347 34.2812 222.347 33.821V32.4318C222.234 32.5057 222.077 32.5739 221.879 32.6364C221.685 32.6932 221.467 32.7472 221.222 32.7983C220.978 32.8437 220.734 32.8864 220.489 32.9261C220.245 32.9602 220.023 32.9915 219.825 33.0199C219.398 33.0824 219.026 33.1818 218.708 33.3182C218.39 33.4545 218.143 33.6392 217.967 33.8722C217.79 34.0994 217.702 34.3835 217.702 34.7244C217.702 35.2188 217.881 35.5966 218.239 35.858C218.603 36.1136 219.063 36.2415 219.62 36.2415ZM232.4 21.0455V38.5H228.769V21.0455H232.4ZM238.939 21.0455V38.5H235.308V21.0455H238.939ZM247.813 38.7557C246.467 38.7557 245.308 38.483 244.336 37.9375C243.37 37.3864 242.626 36.608 242.103 35.6023C241.58 34.5909 241.319 33.3949 241.319 32.0142C241.319 30.6676 241.58 29.4858 242.103 28.4688C242.626 27.4517 243.362 26.6591 244.31 26.0909C245.265 25.5227 246.384 25.2386 247.668 25.2386C248.532 25.2386 249.336 25.3778 250.08 25.6562C250.83 25.929 251.484 26.3409 252.04 26.892C252.603 27.4432 253.04 28.1364 253.353 28.9716C253.665 29.8011 253.822 30.7727 253.822 31.8864V32.8835H242.768V30.6335H250.404C250.404 30.1108 250.29 29.6477 250.063 29.2443C249.836 28.8409 249.521 28.5256 249.117 28.2983C248.719 28.0653 248.256 27.9489 247.728 27.9489C247.177 27.9489 246.688 28.0767 246.262 28.3324C245.842 28.5824 245.512 28.9205 245.273 29.3466C245.035 29.767 244.913 30.2358 244.907 30.7528V32.892C244.907 33.5398 245.026 34.0994 245.265 34.571C245.509 35.0426 245.853 35.4062 246.296 35.6619C246.739 35.9176 247.265 36.0455 247.873 36.0455C248.276 36.0455 248.646 35.9886 248.981 35.875C249.316 35.7614 249.603 35.5909 249.842 35.3636C250.08 35.1364 250.262 34.858 250.387 34.5284L253.745 34.75C253.575 35.5568 253.225 36.2614 252.697 36.8636C252.174 37.4602 251.498 37.9261 250.668 38.2614C249.844 38.5909 248.893 38.7557 247.813 38.7557ZM263.154 25.4091V28.1364H255.271V25.4091H263.154ZM257.06 22.2727H260.691V34.4773C260.691 34.8125 260.742 35.0739 260.844 35.2614C260.947 35.4432 261.089 35.571 261.271 35.6449C261.458 35.7187 261.674 35.7557 261.918 35.7557C262.089 35.7557 262.259 35.7415 262.43 35.7131C262.6 35.679 262.731 35.6534 262.822 35.6364L263.393 38.3381C263.211 38.3949 262.955 38.4602 262.626 38.5341C262.296 38.6136 261.896 38.6619 261.424 38.679C260.549 38.7131 259.782 38.5966 259.123 38.3295C258.469 38.0625 257.961 37.6477 257.597 37.0852C257.234 36.5227 257.055 35.8125 257.06 34.9545V22.2727ZM273.121 20.2273L267.496 41.125H264.369L269.994 20.2273H273.121ZM274.939 38.5V21.0455H281.928C283.212 21.0455 284.283 21.2358 285.141 21.6165C285.999 21.9972 286.643 22.5256 287.075 23.2017C287.507 23.8722 287.723 24.6449 287.723 25.5199C287.723 26.2017 287.587 26.8011 287.314 27.3182C287.041 27.8295 286.666 28.25 286.189 28.5795C285.717 28.9034 285.178 29.1335 284.57 29.2699V29.4403C285.234 29.4687 285.857 29.6562 286.436 30.0028C287.021 30.3494 287.496 30.8352 287.859 31.4602C288.223 32.0795 288.405 32.8182 288.405 33.6761C288.405 34.6023 288.175 35.429 287.714 36.1562C287.26 36.8778 286.587 37.4489 285.695 37.8693C284.803 38.2898 283.703 38.5 282.396 38.5H274.939ZM278.629 35.483H281.638C282.666 35.483 283.416 35.2869 283.888 34.8949C284.359 34.4972 284.595 33.9687 284.595 33.3097C284.595 32.8267 284.479 32.4006 284.246 32.0312C284.013 31.6619 283.68 31.3722 283.249 31.1619C282.822 30.9517 282.314 30.8466 281.723 30.8466H278.629V35.483ZM278.629 28.3494H281.365C281.871 28.3494 282.32 28.2614 282.712 28.0852C283.109 27.9034 283.422 27.6477 283.649 27.3182C283.882 26.9886 283.999 26.5938 283.999 26.1335C283.999 25.5028 283.774 24.9943 283.325 24.608C282.882 24.2216 282.251 24.0284 281.433 24.0284H278.629V28.3494ZM299.133 32.9261V25.4091H302.763V38.5H299.278V36.1222H299.141C298.846 36.8892 298.354 37.5057 297.667 37.9716C296.985 38.4375 296.153 38.6705 295.17 38.6705C294.295 38.6705 293.525 38.4716 292.86 38.0739C292.195 37.6761 291.675 37.1108 291.3 36.3778C290.931 35.6449 290.744 34.767 290.738 33.7443V25.4091H294.369V33.0966C294.374 33.8693 294.582 34.4801 294.991 34.929C295.4 35.3778 295.948 35.6023 296.636 35.6023C297.073 35.6023 297.482 35.5028 297.863 35.304C298.244 35.0994 298.55 34.7983 298.783 34.4006C299.022 34.0028 299.138 33.5114 299.133 32.9261ZM307.909 43.4091C307.449 43.4091 307.017 43.3722 306.614 43.2983C306.216 43.2301 305.886 43.142 305.625 43.0341L306.443 40.3239C306.869 40.4545 307.253 40.5256 307.594 40.5369C307.94 40.5483 308.239 40.4688 308.489 40.2983C308.744 40.1278 308.952 39.8381 309.111 39.429L309.324 38.875L304.628 25.4091H308.446L311.156 35.0227H311.293L314.028 25.4091H317.872L312.784 39.9148C312.54 40.6193 312.207 41.233 311.787 41.7557C311.372 42.2841 310.847 42.6903 310.21 42.9744C309.574 43.2642 308.807 43.4091 307.909 43.4091Z" fill="white"/>
</svg>
