<svg width="204" height="77" viewBox="0 0 204 77" fill="none" xmlns="http://www.w3.org/2000/svg">
<rect width="204" height="77" rx="26" fill="#5586EC"/>
<path d="M68.1435 48V29.0909H72.1413V44.7038H80.2479V48H68.1435ZM89.2292 48.277C87.795 48.277 86.5547 47.9723 85.5083 47.3629C84.4681 46.7474 83.6648 45.8918 83.0985 44.7962C82.5323 43.6944 82.2491 42.4171 82.2491 40.9645C82.2491 39.4995 82.5323 38.2192 83.0985 37.1236C83.6648 36.0218 84.4681 35.1662 85.5083 34.5568C86.5547 33.9413 87.795 33.6335 89.2292 33.6335C90.6634 33.6335 91.9006 33.9413 92.9409 34.5568C93.9873 35.1662 94.7936 36.0218 95.3599 37.1236C95.9262 38.2192 96.2093 39.4995 96.2093 40.9645C96.2093 42.4171 95.9262 43.6944 95.3599 44.7962C94.7936 45.8918 93.9873 46.7474 92.9409 47.3629C91.9006 47.9723 90.6634 48.277 89.2292 48.277ZM89.2477 45.2301C89.9002 45.2301 90.4449 45.0455 90.8819 44.6761C91.319 44.3007 91.6483 43.7898 91.8699 43.1435C92.0976 42.4972 92.2115 41.7616 92.2115 40.9368C92.2115 40.112 92.0976 39.3764 91.8699 38.7301C91.6483 38.0838 91.319 37.5729 90.8819 37.1974C90.4449 36.822 89.9002 36.6342 89.2477 36.6342C88.5891 36.6342 88.0351 36.822 87.5858 37.1974C87.1426 37.5729 86.8071 38.0838 86.5794 38.7301C86.3578 39.3764 86.247 40.112 86.247 40.9368C86.247 41.7616 86.3578 42.4972 86.5794 43.1435C86.8071 43.7898 87.1426 44.3007 87.5858 44.6761C88.0351 45.0455 88.5891 45.2301 89.2477 45.2301ZM105.156 53.6136C103.882 53.6136 102.789 53.4382 101.878 53.0874C100.974 52.7427 100.253 52.2718 99.7179 51.6747C99.1824 51.0777 98.8346 50.4067 98.6745 49.6619L102.312 49.1726C102.423 49.4557 102.599 49.7204 102.839 49.9666C103.079 50.2128 103.396 50.4098 103.79 50.5575C104.19 50.7114 104.676 50.7884 105.248 50.7884C106.104 50.7884 106.809 50.5791 107.363 50.1605C107.923 49.7481 108.203 49.0556 108.203 48.0831V45.4886H108.037C107.864 45.8826 107.606 46.255 107.261 46.6058C106.916 46.9567 106.473 47.2429 105.932 47.4645C105.39 47.6861 104.744 47.7969 103.993 47.7969C102.928 47.7969 101.958 47.5507 101.084 47.0582C100.216 46.5597 99.524 45.7995 99.0069 44.7777C98.496 43.7498 98.2406 42.451 98.2406 40.8814C98.2406 39.2749 98.5022 37.933 99.0254 36.8558C99.5486 35.7786 100.244 34.9723 101.112 34.4368C101.986 33.9013 102.943 33.6335 103.983 33.6335C104.778 33.6335 105.442 33.7689 105.978 34.0398C106.513 34.3045 106.944 34.6368 107.27 35.0369C107.603 35.4309 107.858 35.8187 108.037 36.2003H108.184V33.8182H112.09V48.1385C112.09 49.3449 111.795 50.3544 111.204 51.1669C110.613 51.9794 109.794 52.5888 108.748 52.995C107.707 53.4074 106.51 53.6136 105.156 53.6136ZM105.239 44.8423C105.873 44.8423 106.409 44.6854 106.846 44.3714C107.289 44.0514 107.627 43.5959 107.861 43.005C108.101 42.4079 108.221 41.6939 108.221 40.8629C108.221 40.032 108.104 39.3118 107.871 38.7024C107.637 38.0869 107.298 37.6098 106.855 37.2713C106.412 36.9328 105.873 36.7635 105.239 36.7635C104.593 36.7635 104.048 36.9389 103.605 37.2898C103.162 37.6345 102.826 38.1146 102.599 38.7301C102.371 39.3456 102.257 40.0566 102.257 40.8629C102.257 41.6816 102.371 42.3894 102.599 42.9865C102.832 43.5774 103.168 44.036 103.605 44.3622C104.048 44.6823 104.593 44.8423 105.239 44.8423ZM115.22 48V33.8182H119.153V48H115.22ZM117.196 31.9901C116.611 31.9901 116.109 31.7962 115.691 31.4084C115.278 31.0144 115.072 30.5436 115.072 29.9957C115.072 29.4541 115.278 28.9893 115.691 28.6016C116.109 28.2076 116.611 28.0107 117.196 28.0107C117.781 28.0107 118.279 28.2076 118.692 28.6016C119.11 28.9893 119.319 29.4541 119.319 29.9957C119.319 30.5436 119.11 31.0144 118.692 31.4084C118.279 31.7962 117.781 31.9901 117.196 31.9901ZM126.237 39.8011V48H122.304V33.8182H126.053V36.3203H126.219C126.533 35.4955 127.059 34.843 127.798 34.3629C128.536 33.8767 129.432 33.6335 130.484 33.6335C131.469 33.6335 132.328 33.849 133.06 34.2798C133.793 34.7107 134.362 35.3262 134.768 36.1264C135.175 36.9205 135.378 37.8684 135.378 38.9702V48H131.445V39.6719C131.451 38.804 131.229 38.1269 130.78 37.6406C130.33 37.1482 129.712 36.902 128.924 36.902C128.395 36.902 127.927 37.0159 127.521 37.2436C127.121 37.4714 126.807 37.8037 126.579 38.2408C126.357 38.6716 126.243 39.1918 126.237 39.8011Z" fill="white"/>
</svg>
