<svg width="146" height="53" viewBox="0 0 146 53" fill="none" xmlns="http://www.w3.org/2000/svg">
<rect width="145.5" height="53" rx="8" fill="#90B4FF"/>
<path d="M78.1873 33.0654H67.3069V13.6417H78.1873V33.0654Z" fill="#FF5F00"/>
<path fill-rule="evenodd" clip-rule="evenodd" d="M63.9969 38.6378V40.2776V41.9175H63.2789V41.5193C63.0512 41.8146 62.7057 42 62.2362 42C61.3104 42 60.5846 41.2799 60.5846 40.2776C60.5846 39.2764 61.3104 38.5553 62.2362 38.5553C62.7057 38.5553 63.0512 38.7407 63.2789 39.036V38.6378H63.9969ZM62.3263 39.2272C61.7049 39.2272 61.3245 39.7009 61.3245 40.2773C61.3245 40.8538 61.7049 41.3273 62.3263 41.3273C62.9199 41.3273 63.3208 40.8742 63.3208 40.2773C63.3208 39.6804 62.9199 39.2272 62.3263 39.2272ZM88.2562 40.2773C88.2562 39.7009 88.6364 39.2272 89.2578 39.2272C89.8523 39.2272 90.2524 39.6804 90.2524 40.2773C90.2524 40.8742 89.8523 41.3273 89.2578 41.3273C88.6364 41.3273 88.2562 40.8538 88.2562 40.2773ZM90.9291 37.3207V40.2776V41.9175H90.2105V41.5193C89.9828 41.8146 89.6373 42 89.1677 42C88.2419 42 87.5162 41.2799 87.5162 40.2776C87.5162 39.2764 88.2419 38.5553 89.1677 38.5553C89.6373 38.5553 89.9828 38.7407 90.2105 39.036V37.3207H90.9291ZM72.9085 39.1945C73.371 39.1945 73.6683 39.4827 73.7443 39.99H72.0309C72.1076 39.5164 72.397 39.1945 72.9085 39.1945ZM71.2776 40.2776C71.2776 39.2551 71.9543 38.5553 72.922 38.5553C73.847 38.5553 74.4827 39.2551 74.4898 40.2776C74.4898 40.3734 74.4827 40.463 74.4755 40.5518H72.0239C72.1275 41.1424 72.5489 41.3552 73.0114 41.3552C73.3427 41.3552 73.6953 41.2312 73.972 41.012L74.3238 41.5406C73.923 41.8768 73.4676 42 72.9702 42C71.9819 42 71.2776 41.3206 71.2776 40.2776ZM81.5912 40.2773C81.5912 39.7009 81.9714 39.2272 82.5928 39.2272C83.1866 39.2272 83.5874 39.6804 83.5874 40.2773C83.5874 40.8742 83.1866 41.3273 82.5928 41.3273C81.9714 41.3273 81.5912 40.8538 81.5912 40.2773ZM84.2634 38.6378V40.2776V41.9175H83.5456V41.5193C83.3171 41.8146 82.9724 42 82.5028 42C81.577 42 80.8512 41.2799 80.8512 40.2776C80.8512 39.2764 81.577 38.5553 82.5028 38.5553C82.9724 38.5553 83.3171 38.7407 83.5456 39.036V38.6378H84.2634ZM77.5361 40.2776C77.5361 41.2727 78.2335 42 79.2977 42C79.7949 42 80.1262 41.8901 80.4851 41.6089L80.1404 41.0325C79.8709 41.2248 79.5879 41.3278 79.2763 41.3278C78.7031 41.3206 78.2817 40.9091 78.2817 40.2776C78.2817 39.6462 78.7031 39.2347 79.2763 39.2277C79.5879 39.2277 79.8709 39.3304 80.1404 39.523L80.4851 38.9465C80.1262 38.6654 79.7949 38.5553 79.2977 38.5553C78.2335 38.5553 77.5361 39.2826 77.5361 40.2776ZM85.9217 39.0364C86.1083 38.7481 86.3779 38.5558 86.7922 38.5558C86.9376 38.5558 87.1448 38.5832 87.3037 38.6454L87.0824 39.3176C86.9306 39.2556 86.7787 39.2351 86.6333 39.2351C86.1637 39.2351 85.9289 39.5368 85.9289 40.0794V41.918H85.2101V38.6382H85.9217V39.0364ZM67.5485 38.8986C67.203 38.6723 66.7272 38.5553 66.2022 38.5553C65.3657 38.5553 64.8273 38.9535 64.8273 39.6054C64.8273 40.1403 65.2282 40.4702 65.9666 40.5729L66.3057 40.621C66.6994 40.6758 66.8853 40.7788 66.8853 40.9641C66.8853 41.2177 66.6227 41.3623 66.1326 41.3623C65.6352 41.3623 65.2764 41.2044 65.0344 41.019L64.6961 41.5744C65.0898 41.8625 65.587 42 66.1255 42C67.0789 42 67.6316 41.5539 67.6316 40.9296C67.6316 40.3531 67.1967 40.0515 66.4781 39.9486L66.1397 39.8999C65.8289 39.8592 65.5799 39.7978 65.5799 39.578C65.5799 39.3376 65.8147 39.1939 66.2085 39.1939C66.6298 39.1939 67.0378 39.3517 67.2379 39.4751L67.5485 38.8986ZM75.9418 39.0364C76.1275 38.7481 76.3972 38.5558 76.8115 38.5558C76.9569 38.5558 77.1641 38.5832 77.323 38.6454L77.1017 39.3176C76.9498 39.2556 76.798 39.2351 76.6525 39.2351C76.183 39.2351 75.9482 39.5368 75.9482 40.0794V41.918H75.2302V38.6382H75.9418V39.0364ZM70.6827 38.6378H69.5086V37.6428H68.7829V38.6378H68.1133V39.2897H68.7829V40.7859C68.7829 41.5468 69.0802 42 69.9293 42C70.2408 42 70.5996 41.9042 70.8275 41.7463L70.6203 41.1353C70.4061 41.2586 70.1712 41.3206 69.9846 41.3206C69.6256 41.3206 69.5086 41.1007 69.5086 40.7716V39.2897H70.6827V38.6378ZM59.9495 39.8595V41.918H59.2238V40.0927C59.2238 39.5368 58.989 39.228 58.4989 39.228C58.0221 39.228 57.6909 39.5304 57.6909 40.0999V41.918H56.965V40.0927C56.965 39.5368 56.7239 39.228 56.2472 39.228C55.7562 39.228 55.4385 39.5304 55.4385 40.0999V41.918H54.7134V38.6382H55.4321V39.0426C55.7017 38.6587 56.0464 38.5558 56.399 38.5558C56.9034 38.5558 57.2623 38.7757 57.49 39.1393C57.7944 38.679 58.2292 38.5486 58.6507 38.5558C59.4523 38.5629 59.9495 39.0843 59.9495 39.8595Z" fill="#EEF9FF"/>
<path d="M67.9997 23.3532C67.9997 19.413 69.8569 15.9031 72.7489 13.6413C70.6341 11.9873 67.965 11.0001 65.0642 11.0001C58.197 11.0001 52.6304 16.5306 52.6304 23.3532C52.6304 30.1757 58.197 35.7063 65.0642 35.7063C67.965 35.7063 70.6341 34.719 72.7489 33.065C69.8569 30.8033 67.9997 27.2933 67.9997 23.3532Z" fill="#EB001B"/>
<path d="M92.8694 23.3532C92.8694 30.1757 87.3028 35.7063 80.4356 35.7063C77.5348 35.7063 74.8657 34.719 72.75 33.065C75.6429 30.8033 77.5001 27.2933 77.5001 23.3532C77.5001 19.413 75.6429 15.9031 72.75 13.6413C74.8657 11.9873 77.5348 11.0001 80.4356 11.0001C87.3028 11.0001 92.8694 16.5306 92.8694 23.3532Z" fill="#F79E1B"/>
</svg>
