<svg width="200" height="24" viewBox="0 0 200 24" fill="none" xmlns="http://www.w3.org/2000/svg">
<path d="M1.51705 19V1.54545H8.40341C9.72727 1.54545 10.8551 1.7983 11.7869 2.30398C12.7188 2.80398 13.429 3.5 13.9176 4.39204C14.4119 5.27841 14.6591 6.30114 14.6591 7.46023C14.6591 8.61932 14.4091 9.64205 13.9091 10.5284C13.4091 11.4148 12.6847 12.1051 11.7358 12.5994C10.7926 13.0937 9.65057 13.3409 8.30966 13.3409H3.92045V10.3835H7.71307C8.4233 10.3835 9.00852 10.2614 9.46875 10.017C9.93466 9.76705 10.2813 9.4233 10.5085 8.9858C10.7415 8.54261 10.858 8.03409 10.858 7.46023C10.858 6.88068 10.7415 6.375 10.5085 5.94318C10.2813 5.50568 9.93466 5.16761 9.46875 4.92898C9.00284 4.68466 8.41193 4.5625 7.69602 4.5625H5.20739V19H1.51705ZM20.3693 19.2472C19.5341 19.2472 18.7898 19.1023 18.1364 18.8125C17.483 18.517 16.9659 18.0824 16.5852 17.5085C16.2102 16.929 16.0227 16.2074 16.0227 15.3438C16.0227 14.6165 16.1563 14.0057 16.4233 13.5114C16.6903 13.017 17.054 12.6193 17.5142 12.3182C17.9744 12.017 18.4972 11.7898 19.0824 11.6364C19.6733 11.483 20.2926 11.375 20.9403 11.3125C21.7017 11.233 22.3153 11.1591 22.7812 11.0909C23.2472 11.017 23.5852 10.9091 23.7955 10.767C24.0057 10.625 24.1108 10.4148 24.1108 10.1364V10.0852C24.1108 9.54545 23.9403 9.12784 23.5994 8.83239C23.2642 8.53693 22.7869 8.3892 22.1676 8.3892C21.5142 8.3892 20.9943 8.53409 20.608 8.82386C20.2216 9.10795 19.9659 9.46591 19.8409 9.89773L16.483 9.625C16.6534 8.82955 16.9886 8.14205 17.4886 7.5625C17.9886 6.97727 18.6335 6.52841 19.4233 6.21591C20.2188 5.89773 21.1392 5.73864 22.1847 5.73864C22.9119 5.73864 23.608 5.82386 24.2727 5.99432C24.9432 6.16477 25.5369 6.42898 26.054 6.78693C26.5767 7.14489 26.9886 7.60511 27.2898 8.16761C27.5909 8.72443 27.7415 9.39205 27.7415 10.1705V19H24.2983V17.1847H24.196C23.9858 17.5938 23.7045 17.9545 23.3523 18.267C23 18.5739 22.5767 18.8153 22.0824 18.9915C21.5881 19.1619 21.017 19.2472 20.3693 19.2472ZM21.4091 16.7415C21.9432 16.7415 22.4148 16.6364 22.8239 16.4261C23.233 16.2102 23.554 15.9205 23.7869 15.5568C24.0199 15.1932 24.1364 14.7812 24.1364 14.321V12.9318C24.0227 13.0057 23.8665 13.0739 23.6676 13.1364C23.4744 13.1932 23.2557 13.2472 23.0114 13.2983C22.767 13.3437 22.5227 13.3864 22.2784 13.4261C22.0341 13.4602 21.8125 13.4915 21.6136 13.5199C21.1875 13.5824 20.8153 13.6818 20.4972 13.8182C20.179 13.9545 19.9318 14.1392 19.7557 14.3722C19.5795 14.5994 19.4915 14.8835 19.4915 15.2244C19.4915 15.7188 19.6705 16.0966 20.0284 16.358C20.392 16.6136 20.8523 16.7415 21.4091 16.7415ZM32.331 23.9091C31.8707 23.9091 31.4389 23.8722 31.0355 23.7983C30.6378 23.7301 30.3082 23.642 30.0469 23.5341L30.8651 20.8239C31.2912 20.9545 31.6747 21.0256 32.0156 21.0369C32.3622 21.0483 32.6605 20.9688 32.9105 20.7983C33.1662 20.6278 33.3736 20.3381 33.5327 19.929L33.7457 19.375L29.0497 5.90909H32.8679L35.5781 15.5227H35.7145L38.4503 5.90909H42.294L37.206 20.4148C36.9616 21.1193 36.6293 21.733 36.2088 22.2557C35.794 22.7841 35.2685 23.1903 34.6321 23.4744C33.9957 23.7642 33.2287 23.9091 32.331 23.9091ZM44.152 19V5.90909H47.6122V8.21875H47.7656C48.0384 7.4517 48.4929 6.84659 49.1293 6.40341C49.7656 5.96023 50.527 5.73864 51.4134 5.73864C52.3111 5.73864 53.0753 5.96307 53.706 6.41193C54.3366 6.85511 54.7571 7.45739 54.9673 8.21875H55.1037C55.3707 7.46875 55.8537 6.86932 56.5526 6.42045C57.2571 5.96591 58.0895 5.73864 59.0497 5.73864C60.2713 5.73864 61.2628 6.12784 62.0241 6.90625C62.7912 7.67898 63.1747 8.77557 63.1747 10.196V19H59.5526V10.9119C59.5526 10.1847 59.3594 9.6392 58.973 9.27557C58.5866 8.91193 58.1037 8.73011 57.5241 8.73011C56.8651 8.73011 56.3509 8.94034 55.9815 9.3608C55.6122 9.77557 55.4276 10.3239 55.4276 11.0057V19H51.9077V10.8352C51.9077 10.1932 51.723 9.68182 51.3537 9.30114C50.9901 8.92045 50.5099 8.73011 49.9134 8.73011C49.5099 8.73011 49.1463 8.83239 48.8224 9.03693C48.5043 9.2358 48.2514 9.51705 48.0639 9.88068C47.8764 10.2386 47.7827 10.6591 47.7827 11.142V19H44.152ZM72.0085 19.2557C70.6619 19.2557 69.5028 18.983 68.5312 18.4375C67.5653 17.8864 66.821 17.108 66.2983 16.1023C65.7756 15.0909 65.5142 13.8949 65.5142 12.5142C65.5142 11.1676 65.7756 9.9858 66.2983 8.96875C66.821 7.9517 67.5568 7.15909 68.5057 6.59091C69.4602 6.02273 70.5795 5.73864 71.8636 5.73864C72.7273 5.73864 73.5313 5.87784 74.2756 6.15625C75.0256 6.42898 75.679 6.84091 76.2358 7.39205C76.7983 7.94318 77.2358 8.63636 77.5483 9.47159C77.8608 10.3011 78.017 11.2727 78.017 12.3864V13.3835H66.9631V11.1335H74.5994C74.5994 10.6108 74.4858 10.1477 74.2585 9.74432C74.0313 9.34091 73.7159 9.02557 73.3125 8.7983C72.9148 8.56534 72.4517 8.44886 71.9233 8.44886C71.3722 8.44886 70.8835 8.5767 70.4574 8.83239C70.0369 9.08239 69.7074 9.42045 69.4688 9.84659C69.2301 10.267 69.108 10.7358 69.1023 11.2528V13.392C69.1023 14.0398 69.2216 14.5994 69.4602 15.071C69.7045 15.5426 70.0483 15.9062 70.4915 16.1619C70.9347 16.4176 71.4602 16.5455 72.0682 16.5455C72.4716 16.5455 72.8409 16.4886 73.1761 16.375C73.5114 16.2614 73.7983 16.0909 74.0369 15.8636C74.2756 15.6364 74.4574 15.358 74.5824 15.0284L77.9403 15.25C77.7699 16.0568 77.4205 16.7614 76.892 17.3636C76.3693 17.9602 75.6932 18.4261 74.8636 18.7614C74.0398 19.0909 73.0881 19.2557 72.0085 19.2557ZM84.017 11.4318V19H80.3864V5.90909H83.8466V8.21875H84C84.2898 7.45739 84.7756 6.85511 85.4574 6.41193C86.1392 5.96307 86.9659 5.73864 87.9375 5.73864C88.8466 5.73864 89.6392 5.9375 90.3153 6.33523C90.9915 6.73295 91.517 7.30114 91.892 8.03977C92.267 8.77273 92.4545 9.64773 92.4545 10.6648V19H88.8239V11.3125C88.8295 10.5114 88.625 9.88636 88.2102 9.4375C87.7955 8.98295 87.2244 8.75568 86.4972 8.75568C86.0085 8.75568 85.5767 8.8608 85.2017 9.07102C84.8324 9.28125 84.5426 9.58807 84.3324 9.99148C84.1278 10.3892 84.0227 10.8693 84.017 11.4318ZM102.279 5.90909V8.63636H94.3956V5.90909H102.279ZM96.1854 2.77273H99.8161V14.9773C99.8161 15.3125 99.8672 15.5739 99.9695 15.7614C100.072 15.9432 100.214 16.071 100.396 16.1449C100.583 16.2187 100.799 16.2557 101.043 16.2557C101.214 16.2557 101.384 16.2415 101.555 16.2131C101.725 16.179 101.856 16.1534 101.947 16.1364L102.518 18.8381C102.336 18.8949 102.08 18.9602 101.751 19.0341C101.421 19.1136 101.021 19.1619 100.549 19.179C99.674 19.2131 98.907 19.0966 98.2479 18.8295C97.5945 18.5625 97.0859 18.1477 96.7223 17.5852C96.3587 17.0227 96.1797 16.3125 96.1854 15.4545V2.77273ZM110.267 1.54545H114.818L119.625 13.2727H119.83L124.636 1.54545H129.188V19H125.608V7.6392H125.463L120.946 18.9148H118.509L113.991 7.59659H113.847V19H110.267V1.54545ZM138.126 19.2557C136.779 19.2557 135.62 18.983 134.648 18.4375C133.683 17.8864 132.938 17.108 132.415 16.1023C131.893 15.0909 131.631 13.8949 131.631 12.5142C131.631 11.1676 131.893 9.9858 132.415 8.96875C132.938 7.9517 133.674 7.15909 134.623 6.59091C135.577 6.02273 136.697 5.73864 137.981 5.73864C138.844 5.73864 139.648 5.87784 140.393 6.15625C141.143 6.42898 141.796 6.84091 142.353 7.39205C142.915 7.94318 143.353 8.63636 143.665 9.47159C143.978 10.3011 144.134 11.2727 144.134 12.3864V13.3835H133.08V11.1335H140.717C140.717 10.6108 140.603 10.1477 140.376 9.74432C140.148 9.34091 139.833 9.02557 139.43 8.7983C139.032 8.56534 138.569 8.44886 138.04 8.44886C137.489 8.44886 137.001 8.5767 136.575 8.83239C136.154 9.08239 135.825 9.42045 135.586 9.84659C135.347 10.267 135.225 10.7358 135.219 11.2528V13.392C135.219 14.0398 135.339 14.5994 135.577 15.071C135.822 15.5426 136.165 15.9062 136.609 16.1619C137.052 16.4176 137.577 16.5455 138.185 16.5455C138.589 16.5455 138.958 16.4886 139.293 16.375C139.629 16.2614 139.915 16.0909 140.154 15.8636C140.393 15.6364 140.575 15.358 140.7 15.0284L144.058 15.25C143.887 16.0568 143.538 16.7614 143.009 17.3636C142.487 17.9602 141.81 18.4261 140.981 18.7614C140.157 19.0909 139.205 19.2557 138.126 19.2557ZM153.467 5.90909V8.63636H145.583V5.90909H153.467ZM147.373 2.77273H151.004V14.9773C151.004 15.3125 151.055 15.5739 151.157 15.7614C151.259 15.9432 151.401 16.071 151.583 16.1449C151.771 16.2187 151.987 16.2557 152.231 16.2557C152.401 16.2557 152.572 16.2415 152.742 16.2131C152.913 16.179 153.043 16.1534 153.134 16.1364L153.705 18.8381C153.523 18.8949 153.268 18.9602 152.938 19.0341C152.609 19.1136 152.208 19.1619 151.737 19.179C150.862 19.2131 150.094 19.0966 149.435 18.8295C148.782 18.5625 148.273 18.1477 147.91 17.5852C147.546 17.0227 147.367 16.3125 147.373 15.4545V2.77273ZM159.744 11.4318V19H156.113V1.54545H159.641V8.21875H159.795C160.09 7.44602 160.567 6.84091 161.227 6.40341C161.886 5.96023 162.712 5.73864 163.707 5.73864C164.616 5.73864 165.408 5.9375 166.085 6.33523C166.766 6.72727 167.295 7.29261 167.67 8.03125C168.05 8.7642 168.238 9.64205 168.232 10.6648V19H164.602V11.3125C164.607 10.5057 164.403 9.87784 163.988 9.42898C163.579 8.98011 163.005 8.75568 162.266 8.75568C161.772 8.75568 161.335 8.8608 160.954 9.07102C160.579 9.28125 160.283 9.58807 160.067 9.99148C159.857 10.3892 159.749 10.8693 159.744 11.4318ZM177.004 19.2557C175.68 19.2557 174.536 18.9744 173.57 18.4119C172.609 17.8437 171.868 17.054 171.345 16.0426C170.822 15.0256 170.561 13.8466 170.561 12.5057C170.561 11.1534 170.822 9.97159 171.345 8.96023C171.868 7.94318 172.609 7.15341 173.57 6.59091C174.536 6.02273 175.68 5.73864 177.004 5.73864C178.328 5.73864 179.47 6.02273 180.43 6.59091C181.396 7.15341 182.141 7.94318 182.663 8.96023C183.186 9.97159 183.447 11.1534 183.447 12.5057C183.447 13.8466 183.186 15.0256 182.663 16.0426C182.141 17.054 181.396 17.8437 180.43 18.4119C179.47 18.9744 178.328 19.2557 177.004 19.2557ZM177.021 16.4432C177.624 16.4432 178.126 16.2727 178.53 15.9318C178.933 15.5852 179.237 15.1136 179.442 14.517C179.652 13.9205 179.757 13.2415 179.757 12.4801C179.757 11.7188 179.652 11.0398 179.442 10.4432C179.237 9.84659 178.933 9.375 178.53 9.02841C178.126 8.68182 177.624 8.50852 177.021 8.50852C176.413 8.50852 175.902 8.68182 175.487 9.02841C175.078 9.375 174.768 9.84659 174.558 10.4432C174.354 11.0398 174.251 11.7188 174.251 12.4801C174.251 13.2415 174.354 13.9205 174.558 14.517C174.768 15.1136 175.078 15.5852 175.487 15.9318C175.902 16.2727 176.413 16.4432 177.021 16.4432ZM190.632 19.2131C189.638 19.2131 188.737 18.9574 187.93 18.446C187.129 17.929 186.493 17.1705 186.021 16.1705C185.555 15.1648 185.322 13.9318 185.322 12.4716C185.322 10.9716 185.564 9.72443 186.047 8.73011C186.53 7.73011 187.172 6.98295 187.973 6.48864C188.78 5.98864 189.663 5.73864 190.624 5.73864C191.357 5.73864 191.967 5.86364 192.456 6.11364C192.95 6.35795 193.348 6.66477 193.649 7.03409C193.956 7.39773 194.189 7.75568 194.348 8.10795H194.459V1.54545H198.081V19H194.501V16.9034H194.348C194.178 17.267 193.936 17.6278 193.624 17.9858C193.317 18.3381 192.916 18.6307 192.422 18.8636C191.933 19.0966 191.337 19.2131 190.632 19.2131ZM191.783 16.3239C192.368 16.3239 192.862 16.1648 193.266 15.8466C193.675 15.5227 193.987 15.071 194.203 14.4915C194.425 13.9119 194.536 13.233 194.536 12.4545C194.536 11.6761 194.428 11 194.212 10.4261C193.996 9.85227 193.683 9.40909 193.274 9.09659C192.865 8.78409 192.368 8.62784 191.783 8.62784C191.186 8.62784 190.683 8.78977 190.274 9.11364C189.865 9.4375 189.555 9.88636 189.345 10.4602C189.135 11.0341 189.03 11.6989 189.03 12.4545C189.03 13.2159 189.135 13.8892 189.345 14.4744C189.561 15.054 189.871 15.5085 190.274 15.8381C190.683 16.1619 191.186 16.3239 191.783 16.3239Z" fill="#1458E4"/>
</svg>
