<svg width="89" height="31" viewBox="0 0 89 31" fill="none" xmlns="http://www.w3.org/2000/svg">
<path d="M1.51705 24V6.54545H8.40341C9.72159 6.54545 10.8466 6.78125 11.7784 7.25284C12.7159 7.71875 13.429 8.38068 13.9176 9.23864C14.4119 10.0909 14.6591 11.0937 14.6591 12.2472C14.6591 13.4062 14.4091 14.4034 13.9091 15.2386C13.4091 16.0682 12.6847 16.7045 11.7358 17.1477C10.7926 17.5909 9.65057 17.8125 8.30966 17.8125H3.69886V14.8466H7.71307C8.41761 14.8466 9.00284 14.75 9.46875 14.5568C9.93466 14.3636 10.2813 14.0739 10.5085 13.6875C10.7415 13.3011 10.858 12.821 10.858 12.2472C10.858 11.6676 10.7415 11.179 10.5085 10.7812C10.2813 10.3835 9.93182 10.0824 9.46023 9.87784C8.99432 9.66761 8.40625 9.5625 7.69602 9.5625H5.20739V24H1.51705ZM10.9432 16.0568L15.2812 24H11.2074L6.96307 16.0568H10.9432ZM22.9027 24.2557C21.5788 24.2557 20.4339 23.9744 19.468 23.4119C18.5078 22.8437 17.7663 22.054 17.2436 21.0426C16.7209 20.0256 16.4595 18.8466 16.4595 17.5057C16.4595 16.1534 16.7209 14.9716 17.2436 13.9602C17.7663 12.9432 18.5078 12.1534 19.468 11.5909C20.4339 11.0227 21.5788 10.7386 22.9027 10.7386C24.2266 10.7386 25.3686 11.0227 26.3288 11.5909C27.2947 12.1534 28.0391 12.9432 28.5618 13.9602C29.0845 14.9716 29.3459 16.1534 29.3459 17.5057C29.3459 18.8466 29.0845 20.0256 28.5618 21.0426C28.0391 22.054 27.2947 22.8437 26.3288 23.4119C25.3686 23.9744 24.2266 24.2557 22.9027 24.2557ZM22.9197 21.4432C23.522 21.4432 24.0249 21.2727 24.4283 20.9318C24.8317 20.5852 25.1357 20.1136 25.3402 19.517C25.5504 18.9205 25.6555 18.2415 25.6555 17.4801C25.6555 16.7188 25.5504 16.0398 25.3402 15.4432C25.1357 14.8466 24.8317 14.375 24.4283 14.0284C24.0249 13.6818 23.522 13.5085 22.9197 13.5085C22.3118 13.5085 21.8004 13.6818 21.3857 14.0284C20.9766 14.375 20.6669 14.8466 20.4567 15.4432C20.2521 16.0398 20.1499 16.7188 20.1499 17.4801C20.1499 18.2415 20.2521 18.9205 20.4567 19.517C20.6669 20.1136 20.9766 20.5852 21.3857 20.9318C21.8004 21.2727 22.3118 21.4432 22.9197 21.4432ZM40.1016 18.4261V10.9091H43.7322V24H40.2464V21.6222H40.1101C39.8146 22.3892 39.3232 23.0057 38.6357 23.4716C37.9538 23.9375 37.1214 24.1705 36.1385 24.1705C35.2635 24.1705 34.4936 23.9716 33.8288 23.5739C33.1641 23.1761 32.6442 22.6108 32.2692 21.8778C31.8999 21.1449 31.7124 20.267 31.7067 19.2443V10.9091H35.3374V18.5966C35.343 19.3693 35.5504 19.9801 35.9595 20.429C36.3686 20.8778 36.9169 21.1023 37.6044 21.1023C38.0419 21.1023 38.451 21.0028 38.8317 20.804C39.2124 20.5994 39.5192 20.2983 39.7521 19.9006C39.9908 19.5028 40.1072 19.0114 40.1016 18.4261ZM50.267 16.4318V24H46.6364V10.9091H50.0966V13.2188H50.25C50.5398 12.4574 51.0256 11.8551 51.7074 11.4119C52.3892 10.9631 53.2159 10.7386 54.1875 10.7386C55.0966 10.7386 55.8892 10.9375 56.5653 11.3352C57.2415 11.733 57.767 12.3011 58.142 13.0398C58.517 13.7727 58.7045 14.6477 58.7045 15.6648V24H55.0739V16.3125C55.0795 15.5114 54.875 14.8864 54.4602 14.4375C54.0455 13.983 53.4744 13.7557 52.7472 13.7557C52.2585 13.7557 51.8267 13.8608 51.4517 14.071C51.0824 14.2812 50.7926 14.5881 50.5824 14.9915C50.3778 15.3892 50.2727 15.8693 50.267 16.4318ZM66.3899 24.2131C65.3956 24.2131 64.495 23.9574 63.6882 23.446C62.8871 22.929 62.2507 22.1705 61.7791 21.1705C61.3132 20.1648 61.0803 18.9318 61.0803 17.4716C61.0803 15.9716 61.3217 14.7244 61.8047 13.7301C62.2876 12.7301 62.9297 11.983 63.7308 11.4886C64.5376 10.9886 65.4212 10.7386 66.3814 10.7386C67.1143 10.7386 67.7251 10.8636 68.2138 11.1136C68.7081 11.358 69.1058 11.6648 69.407 12.0341C69.7138 12.3977 69.9467 12.7557 70.1058 13.108H70.2166V6.54545H73.8388V24H70.2592V21.9034H70.1058C69.9354 22.267 69.6939 22.6278 69.3814 22.9858C69.0746 23.3381 68.674 23.6307 68.1797 23.8636C67.6911 24.0966 67.0945 24.2131 66.3899 24.2131ZM67.5405 21.3239C68.1257 21.3239 68.62 21.1648 69.0234 20.8466C69.4325 20.5227 69.745 20.071 69.9609 19.4915C70.1825 18.9119 70.2933 18.233 70.2933 17.4545C70.2933 16.6761 70.1854 16 69.9695 15.4261C69.7536 14.8523 69.4411 14.4091 69.032 14.0966C68.6229 13.7841 68.1257 13.6278 67.5405 13.6278C66.9439 13.6278 66.4411 13.7898 66.032 14.1136C65.6229 14.4375 65.3132 14.8864 65.103 15.4602C64.8928 16.0341 64.7876 16.6989 64.7876 17.4545C64.7876 18.2159 64.8928 18.8892 65.103 19.4744C65.3189 20.054 65.6286 20.5085 66.032 20.8381C66.4411 21.1619 66.9439 21.3239 67.5405 21.3239ZM87.7159 14.642L84.392 14.8466C84.3352 14.5625 84.2131 14.3068 84.0256 14.0795C83.8381 13.8466 83.5909 13.6619 83.2841 13.5256C82.983 13.3835 82.6222 13.3125 82.2017 13.3125C81.6392 13.3125 81.1648 13.4318 80.7784 13.6705C80.392 13.9034 80.1989 14.2159 80.1989 14.608C80.1989 14.9205 80.3239 15.1847 80.5739 15.4006C80.8239 15.6165 81.2528 15.7898 81.8608 15.9205L84.2301 16.3977C85.5028 16.6591 86.4517 17.0795 87.0767 17.6591C87.7017 18.2386 88.0142 19 88.0142 19.9432C88.0142 20.8011 87.7614 21.554 87.2557 22.2017C86.7557 22.8494 86.0682 23.3551 85.1932 23.7188C84.3239 24.0767 83.321 24.2557 82.1847 24.2557C80.4517 24.2557 79.071 23.8949 78.0426 23.1733C77.0199 22.446 76.4205 21.4574 76.2443 20.2074L79.8153 20.0199C79.9233 20.5483 80.1847 20.9517 80.5994 21.2301C81.0142 21.5028 81.5455 21.6392 82.1932 21.6392C82.8295 21.6392 83.3409 21.517 83.7273 21.2727C84.1193 21.0227 84.3182 20.7017 84.3239 20.3097C84.3182 19.9801 84.179 19.7102 83.9062 19.5C83.6335 19.2841 83.2131 19.1193 82.6449 19.0057L80.3778 18.554C79.0994 18.2983 78.1477 17.8551 77.5227 17.2244C76.9034 16.5937 76.5938 15.7898 76.5938 14.8125C76.5938 13.9716 76.821 13.2472 77.2756 12.6392C77.7358 12.0312 78.3807 11.5625 79.2102 11.233C80.0455 10.9034 81.0227 10.7386 82.142 10.7386C83.7955 10.7386 85.0966 11.0881 86.0455 11.7869C87 12.4858 87.5568 13.4375 87.7159 14.642Z" fill="#1458E4"/>
</svg>
