<svg width="280" height="31" viewBox="0 0 280 31" fill="none" xmlns="http://www.w3.org/2000/svg">
<path d="M26.8278 12.6562H23.0948C23.0266 12.1733 22.8874 11.7443 22.6772 11.3693C22.467 10.9886 22.1971 10.6648 21.8675 10.3977C21.538 10.1307 21.1573 9.92614 20.7255 9.78409C20.2994 9.64205 19.8363 9.57102 19.3363 9.57102C18.4329 9.57102 17.646 9.79545 16.9755 10.2443C16.305 10.6875 15.7852 11.3352 15.4158 12.1875C15.0465 13.0341 14.8619 14.0625 14.8619 15.2727C14.8619 16.517 15.0465 17.5625 15.4158 18.4091C15.7908 19.2557 16.3136 19.8949 16.984 20.3267C17.6545 20.7585 18.43 20.9744 19.3107 20.9744C19.805 20.9744 20.2624 20.9091 20.6829 20.7784C21.109 20.6477 21.4869 20.4574 21.8164 20.2074C22.146 19.9517 22.4187 19.642 22.6346 19.2784C22.8562 18.9148 23.0096 18.5 23.0948 18.0341L26.8278 18.0511C26.7312 18.8523 26.4897 19.625 26.1033 20.3693C25.7227 21.108 25.2085 21.7699 24.5607 22.3551C23.9187 22.9347 23.1516 23.3949 22.2596 23.7358C21.3732 24.071 20.3704 24.2386 19.2511 24.2386C17.6942 24.2386 16.3022 23.8864 15.0749 23.1818C13.8533 22.4773 12.8874 21.4574 12.1772 20.1222C11.4727 18.7869 11.1204 17.1705 11.1204 15.2727C11.1204 13.3693 11.4783 11.75 12.1942 10.4148C12.9102 9.07955 13.8817 8.0625 15.109 7.36364C16.3363 6.65909 17.717 6.30682 19.2511 6.30682C20.2624 6.30682 21.1999 6.44886 22.0636 6.73295C22.9329 7.01705 23.7028 7.43182 24.3732 7.97727C25.0437 8.51704 25.5891 9.17898 26.0096 9.96307C26.4357 10.7472 26.7085 11.6449 26.8278 12.6562ZM37.8008 18.4261V10.9091H41.4315V24H37.9457V21.6222H37.8093C37.5138 22.3892 37.0224 23.0057 36.3349 23.4716C35.6531 23.9375 34.8207 24.1705 33.8377 24.1705C32.9627 24.1705 32.1928 23.9716 31.5281 23.5739C30.8633 23.1761 30.3434 22.6108 29.9684 21.8778C29.5991 21.1449 29.4116 20.267 29.4059 19.2443V10.9091H33.0366V18.5966C33.0423 19.3693 33.2496 19.9801 33.6587 20.429C34.0678 20.8778 34.6161 21.1023 35.3036 21.1023C35.7411 21.1023 36.1502 21.0028 36.5309 20.804C36.9116 20.5994 37.2184 20.2983 37.4513 19.9006C37.69 19.5028 37.8065 19.0114 37.8008 18.4261ZM44.3356 24V10.9091H47.8555V13.1932H47.9918C48.2305 12.3807 48.631 11.767 49.1935 11.3523C49.756 10.9318 50.4038 10.7216 51.1367 10.7216C51.3185 10.7216 51.5146 10.733 51.7248 10.7557C51.935 10.7784 52.1197 10.8097 52.2788 10.8494V14.071C52.1083 14.0199 51.8725 13.9744 51.5714 13.9347C51.2702 13.8949 50.9947 13.875 50.7447 13.875C50.2106 13.875 49.7333 13.9915 49.3129 14.2244C48.8981 14.4517 48.5685 14.7699 48.3242 15.179C48.0856 15.5881 47.9663 16.0597 47.9663 16.5938V24H44.3356ZM54.1559 24V10.9091H57.6758V13.1932H57.8121C58.0508 12.3807 58.4513 11.767 59.0138 11.3523C59.5763 10.9318 60.2241 10.7216 60.957 10.7216C61.1388 10.7216 61.3349 10.733 61.5451 10.7557C61.7553 10.7784 61.94 10.8097 62.0991 10.8494V14.071C61.9286 14.0199 61.6928 13.9744 61.3917 13.9347C61.0906 13.8949 60.815 13.875 60.565 13.875C60.0309 13.875 59.5536 13.9915 59.1332 14.2244C58.7184 14.4517 58.3888 14.7699 58.1445 15.179C57.9059 15.5881 57.7866 16.0597 57.7866 16.5938V24H54.1559ZM69.3327 24.2557C67.9862 24.2557 66.8271 23.983 65.8555 23.4375C64.8896 22.8864 64.1452 22.108 63.6225 21.1023C63.0998 20.0909 62.8384 18.8949 62.8384 17.5142C62.8384 16.1676 63.0998 14.9858 63.6225 13.9688C64.1452 12.9517 64.881 12.1591 65.8299 11.5909C66.7844 11.0227 67.9038 10.7386 69.1879 10.7386C70.0515 10.7386 70.8555 10.8778 71.5998 11.1562C72.3498 11.429 73.0032 11.8409 73.56 12.392C74.1225 12.9432 74.56 13.6364 74.8725 14.4716C75.185 15.3011 75.3413 16.2727 75.3413 17.3864V18.3835H64.2873V16.1335H71.9237C71.9237 15.6108 71.81 15.1477 71.5827 14.7443C71.3555 14.3409 71.0401 14.0256 70.6367 13.7983C70.239 13.5653 69.7759 13.4489 69.2475 13.4489C68.6964 13.4489 68.2077 13.5767 67.7816 13.8324C67.3612 14.0824 67.0316 14.4205 66.793 14.8466C66.5543 15.267 66.4322 15.7358 66.4265 16.2528V18.392C66.4265 19.0398 66.5458 19.5994 66.7844 20.071C67.0288 20.5426 67.3725 20.9062 67.8157 21.1619C68.2589 21.4176 68.7844 21.5455 69.3924 21.5455C69.7958 21.5455 70.1651 21.4886 70.5004 21.375C70.8356 21.2614 71.1225 21.0909 71.3612 20.8636C71.5998 20.6364 71.7816 20.358 71.9066 20.0284L75.2646 20.25C75.0941 21.0568 74.7447 21.7614 74.2163 22.3636C73.6935 22.9602 73.0174 23.4261 72.1879 23.7614C71.364 24.0909 70.4123 24.2557 69.3327 24.2557ZM81.3413 16.4318V24H77.7106V10.9091H81.1708V13.2188H81.3242C81.614 12.4574 82.0998 11.8551 82.7816 11.4119C83.4634 10.9631 84.2901 10.7386 85.2617 10.7386C86.1708 10.7386 86.9634 10.9375 87.6396 11.3352C88.3157 11.733 88.8413 12.3011 89.2163 13.0398C89.5913 13.7727 89.7788 14.6477 89.7788 15.6648V24H86.1481V16.3125C86.1538 15.5114 85.9492 14.8864 85.5344 14.4375C85.1197 13.983 84.5487 13.7557 83.8214 13.7557C83.3327 13.7557 82.9009 13.8608 82.5259 14.071C82.1566 14.2812 81.8668 14.5881 81.6566 14.9915C81.4521 15.3892 81.3469 15.8693 81.3413 16.4318ZM99.6033 10.9091V13.6364H91.7198V10.9091H99.6033ZM93.5096 7.77273H97.1403V19.9773C97.1403 20.3125 97.1914 20.5739 97.2937 20.7614C97.396 20.9432 97.538 21.071 97.7198 21.1449C97.9073 21.2187 98.1232 21.2557 98.3675 21.2557C98.538 21.2557 98.7085 21.2415 98.8789 21.2131C99.0494 21.179 99.18 21.1534 99.271 21.1364L99.842 23.8381C99.6602 23.8949 99.4045 23.9602 99.0749 24.0341C98.7454 24.1136 98.3448 24.1619 97.8732 24.179C96.9982 24.2131 96.2312 24.0966 95.5721 23.8295C94.9187 23.5625 94.4102 23.1477 94.0465 22.5852C93.6829 22.0227 93.5039 21.3125 93.5096 20.4545V7.77273ZM107.591 24V6.54545H114.478C115.801 6.54545 116.929 6.7983 117.861 7.30398C118.793 7.80398 119.503 8.5 119.992 9.39204C120.486 10.2784 120.733 11.3011 120.733 12.4602C120.733 13.6193 120.483 14.642 119.983 15.5284C119.483 16.4148 118.759 17.1051 117.81 17.5994C116.867 18.0937 115.725 18.3409 114.384 18.3409H109.995V15.3835H113.787C114.498 15.3835 115.083 15.2614 115.543 15.017C116.009 14.767 116.355 14.4233 116.583 13.9858C116.816 13.5426 116.932 13.0341 116.932 12.4602C116.932 11.8807 116.816 11.375 116.583 10.9432C116.355 10.5057 116.009 10.1676 115.543 9.92898C115.077 9.68466 114.486 9.5625 113.77 9.5625H111.282V24H107.591ZM123.062 24V10.9091H126.582V13.1932H126.718C126.957 12.3807 127.358 11.767 127.92 11.3523C128.483 10.9318 129.13 10.7216 129.863 10.7216C130.045 10.7216 130.241 10.733 130.451 10.7557C130.662 10.7784 130.846 10.8097 131.005 10.8494V14.071C130.835 14.0199 130.599 13.9744 130.298 13.9347C129.997 13.8949 129.721 13.875 129.471 13.875C128.937 13.875 128.46 13.9915 128.039 14.2244C127.625 14.4517 127.295 14.7699 127.051 15.179C126.812 15.5881 126.693 16.0597 126.693 16.5938V24H123.062ZM132.882 24V10.9091H136.513V24H132.882ZM134.706 9.22159C134.167 9.22159 133.703 9.04261 133.317 8.68466C132.936 8.32102 132.746 7.88636 132.746 7.38068C132.746 6.88068 132.936 6.4517 133.317 6.09375C133.703 5.73011 134.167 5.54829 134.706 5.54829C135.246 5.54829 135.706 5.73011 136.087 6.09375C136.473 6.4517 136.667 6.88068 136.667 7.38068C136.667 7.88636 136.473 8.32102 136.087 8.68466C135.706 9.04261 135.246 9.22159 134.706 9.22159ZM145.336 24.2557C143.995 24.2557 142.842 23.9716 141.876 23.4034C140.916 22.8295 140.177 22.0341 139.66 21.017C139.149 20 138.893 18.8295 138.893 17.5057C138.893 16.1648 139.152 14.9886 139.669 13.9773C140.191 12.9602 140.933 12.1676 141.893 11.5994C142.853 11.0256 143.995 10.7386 145.319 10.7386C146.461 10.7386 147.461 10.946 148.319 11.3608C149.177 11.7756 149.856 12.358 150.356 13.108C150.856 13.858 151.132 14.7386 151.183 15.75H147.757C147.66 15.0966 147.404 14.571 146.99 14.1733C146.581 13.7699 146.044 13.5682 145.379 13.5682C144.816 13.5682 144.325 13.7216 143.904 14.0284C143.49 14.3295 143.166 14.7699 142.933 15.3494C142.7 15.929 142.583 16.6307 142.583 17.4545C142.583 18.2898 142.697 19 142.924 19.5852C143.157 20.1705 143.484 20.6165 143.904 20.9233C144.325 21.2301 144.816 21.3835 145.379 21.3835C145.794 21.3835 146.166 21.2983 146.495 21.1278C146.831 20.9574 147.106 20.7102 147.322 20.3864C147.544 20.0568 147.689 19.6619 147.757 19.2017H151.183C151.126 20.2017 150.853 21.0824 150.365 21.8438C149.882 22.5994 149.214 23.1903 148.362 23.6165C147.51 24.0426 146.501 24.2557 145.336 24.2557ZM159.473 24.2557C158.127 24.2557 156.968 23.983 155.996 23.4375C155.03 22.8864 154.286 22.108 153.763 21.1023C153.24 20.0909 152.979 18.8949 152.979 17.5142C152.979 16.1676 153.24 14.9858 153.763 13.9688C154.286 12.9517 155.022 12.1591 155.971 11.5909C156.925 11.0227 158.044 10.7386 159.328 10.7386C160.192 10.7386 160.996 10.8778 161.74 11.1562C162.49 11.429 163.144 11.8409 163.701 12.392C164.263 12.9432 164.701 13.6364 165.013 14.4716C165.326 15.3011 165.482 16.2727 165.482 17.3864V18.3835H154.428V16.1335H162.064C162.064 15.6108 161.951 15.1477 161.723 14.7443C161.496 14.3409 161.181 14.0256 160.777 13.7983C160.38 13.5653 159.917 13.4489 159.388 13.4489C158.837 13.4489 158.348 13.5767 157.922 13.8324C157.502 14.0824 157.172 14.4205 156.934 14.8466C156.695 15.267 156.573 15.7358 156.567 16.2528V18.392C156.567 19.0398 156.686 19.5994 156.925 20.071C157.169 20.5426 157.513 20.9062 157.956 21.1619C158.4 21.4176 158.925 21.5455 159.533 21.5455C159.936 21.5455 160.306 21.4886 160.641 21.375C160.976 21.2614 161.263 21.0909 161.502 20.8636C161.74 20.6364 161.922 20.358 162.047 20.0284L165.405 20.25C165.235 21.0568 164.885 21.7614 164.357 22.3636C163.834 22.9602 163.158 23.4261 162.328 23.7614C161.505 24.0909 160.553 24.2557 159.473 24.2557ZM169.973 24.2216C169.411 24.2216 168.928 24.0227 168.525 23.625C168.127 23.2216 167.928 22.7386 167.928 22.1761C167.928 21.6193 168.127 21.142 168.525 20.7443C168.928 20.3466 169.411 20.1477 169.973 20.1477C170.519 20.1477 170.996 20.3466 171.405 20.7443C171.814 21.142 172.019 21.6193 172.019 22.1761C172.019 22.5511 171.922 22.8949 171.729 23.2074C171.542 23.5142 171.294 23.7614 170.988 23.9489C170.681 24.1307 170.343 24.2216 169.973 24.2216ZM169.973 15.0511C169.411 15.0511 168.928 14.8523 168.525 14.4545C168.127 14.0568 167.928 13.5739 167.928 13.0057C167.928 12.4489 168.127 11.9744 168.525 11.5824C168.928 11.1847 169.411 10.9858 169.973 10.9858C170.519 10.9858 170.996 11.1847 171.405 11.5824C171.814 11.9744 172.019 12.4489 172.019 13.0057C172.019 13.3864 171.922 13.733 171.729 14.0455C171.542 14.3523 171.294 14.5966 170.988 14.7784C170.681 14.9602 170.343 15.0511 169.973 15.0511Z" fill="#1458E4" fill-opacity="0.6"/>
<path d="M186.384 26.1818V4.36364H187.782V26.1818H186.384ZM190.091 11.5653C190.023 10.8778 189.73 10.3437 189.213 9.96307C188.696 9.58239 187.995 9.39204 187.108 9.39204C186.506 9.39204 185.998 9.47727 185.583 9.64773C185.168 9.8125 184.85 10.0426 184.628 10.3381C184.412 10.6335 184.304 10.9688 184.304 11.3438C184.293 11.6562 184.358 11.929 184.5 12.1619C184.648 12.3949 184.85 12.5966 185.105 12.767C185.361 12.9318 185.657 13.0767 185.992 13.2017C186.327 13.321 186.685 13.4233 187.066 13.5085L188.634 13.8835C189.395 14.054 190.094 14.2812 190.73 14.5653C191.367 14.8494 191.918 15.1989 192.384 15.6136C192.85 16.0284 193.211 16.517 193.466 17.0795C193.728 17.642 193.861 18.2869 193.867 19.0142C193.861 20.0824 193.588 21.0085 193.049 21.7926C192.515 22.571 191.742 23.1761 190.73 23.608C189.725 24.0341 188.512 24.2472 187.091 24.2472C185.682 24.2472 184.455 24.0312 183.409 23.5994C182.37 23.1676 181.557 22.5284 180.972 21.6818C180.392 20.8295 180.088 19.7756 180.06 18.5199H183.631C183.671 19.1051 183.838 19.5937 184.134 19.9858C184.435 20.3722 184.836 20.6648 185.336 20.8636C185.841 21.0568 186.412 21.1534 187.049 21.1534C187.674 21.1534 188.216 21.0625 188.676 20.8807C189.142 20.6989 189.503 20.446 189.759 20.1222C190.015 19.7983 190.142 19.4261 190.142 19.0057C190.142 18.6136 190.026 18.2841 189.793 18.017C189.566 17.75 189.23 17.5227 188.787 17.3352C188.35 17.1477 187.813 16.9773 187.176 16.8239L185.276 16.3466C183.804 15.9886 182.642 15.429 181.79 14.6676C180.938 13.9062 180.515 12.8807 180.52 11.5909C180.515 10.5341 180.796 9.6108 181.364 8.82102C181.938 8.03125 182.725 7.41477 183.725 6.97159C184.725 6.52841 185.861 6.30682 187.134 6.30682C188.429 6.30682 189.56 6.52841 190.526 6.97159C191.498 7.41477 192.253 8.03125 192.793 8.82102C193.333 9.6108 193.611 10.5256 193.628 11.5653H190.091ZM203.841 6.54545V24H200.15V10.0483H200.048L196.051 12.554V9.28125L200.372 6.54545H203.841ZM215.625 5.72727L210 26.625H206.873L212.498 5.72727H215.625ZM232.843 12.6562H229.11C229.042 12.1733 228.903 11.7443 228.693 11.3693C228.483 10.9886 228.213 10.6648 227.883 10.3977C227.554 10.1307 227.173 9.92614 226.741 9.78409C226.315 9.64205 225.852 9.57102 225.352 9.57102C224.449 9.57102 223.662 9.79545 222.991 10.2443C222.321 10.6875 221.801 11.3352 221.431 12.1875C221.062 13.0341 220.877 14.0625 220.877 15.2727C220.877 16.517 221.062 17.5625 221.431 18.4091C221.806 19.2557 222.329 19.8949 223 20.3267C223.67 20.7585 224.446 20.9744 225.326 20.9744C225.821 20.9744 226.278 20.9091 226.699 20.7784C227.125 20.6477 227.502 20.4574 227.832 20.2074C228.162 19.9517 228.434 19.642 228.65 19.2784C228.872 18.9148 229.025 18.5 229.11 18.0341L232.843 18.0511C232.747 18.8523 232.505 19.625 232.119 20.3693C231.738 21.108 231.224 21.7699 230.576 22.3551C229.934 22.9347 229.167 23.3949 228.275 23.7358C227.389 24.071 226.386 24.2386 225.267 24.2386C223.71 24.2386 222.318 23.8864 221.091 23.1818C219.869 22.4773 218.903 21.4574 218.193 20.1222C217.488 18.7869 217.136 17.1705 217.136 15.2727C217.136 13.3693 217.494 11.75 218.21 10.4148C218.926 9.07955 219.897 8.0625 221.125 7.36364C222.352 6.65909 223.733 6.30682 225.267 6.30682C226.278 6.30682 227.216 6.44886 228.079 6.73295C228.949 7.01705 229.718 7.43182 230.389 7.97727C231.059 8.51704 231.605 9.17898 232.025 9.96307C232.451 10.7472 232.724 11.6449 232.843 12.6562ZM239.18 6.54545V24H235.49V6.54545H239.18ZM256.816 6.54545V24H253.628L246.034 13.0142H245.907V24H242.216V6.54545H245.455L252.989 17.5227H253.142V6.54545H256.816ZM267.356 6.54545V24H263.666V10.0483H263.564L259.566 12.554V9.28125L263.887 6.54545H267.356Z" fill="#1458E4"/>
</svg>
