<svg width="185" height="77" viewBox="0 0 185 77" fill="none" xmlns="http://www.w3.org/2000/svg">
<rect width="185" height="77" rx="26" fill="white"/>
<path d="M35.6435 48V29.0909H43.1037C44.5317 29.0909 45.7505 29.3464 46.7599 29.8572C47.7756 30.362 48.5481 31.0791 49.0774 32.0085C49.6129 32.9318 49.8807 34.0182 49.8807 35.2678C49.8807 36.5234 49.6098 37.6037 49.0682 38.5085C48.5265 39.4072 47.7417 40.0966 46.7138 40.5767C45.692 41.0568 44.4548 41.2969 43.0021 41.2969H38.0071V38.0838H42.3558C43.1191 38.0838 43.7531 37.9792 44.2578 37.7699C44.7625 37.5606 45.138 37.2467 45.3842 36.8281C45.6366 36.4096 45.7628 35.8894 45.7628 35.2678C45.7628 34.6399 45.6366 34.1106 45.3842 33.6797C45.138 33.2488 44.7595 32.9226 44.2486 32.701C43.7438 32.4732 43.1068 32.3594 42.3374 32.3594H39.6413V48H35.6435ZM45.8551 39.3949L50.5547 48H46.1413L41.5433 39.3949H45.8551ZM70.0824 38.5455C70.0824 40.6075 69.6915 42.3617 68.9098 43.8082C68.1342 45.2547 67.0755 46.3596 65.7337 47.1229C64.398 47.88 62.8961 48.2585 61.228 48.2585C59.5476 48.2585 58.0395 47.8769 56.7038 47.1136C55.3681 46.3504 54.3125 45.2455 53.5369 43.799C52.7614 42.3525 52.3736 40.6013 52.3736 38.5455C52.3736 36.4834 52.7614 34.7292 53.5369 33.2827C54.3125 31.8362 55.3681 30.7344 56.7038 29.9773C58.0395 29.214 59.5476 28.8324 61.228 28.8324C62.8961 28.8324 64.398 29.214 65.7337 29.9773C67.0755 30.7344 68.1342 31.8362 68.9098 33.2827C69.6915 34.7292 70.0824 36.4834 70.0824 38.5455ZM66.0291 38.5455C66.0291 37.2098 65.8291 36.0833 65.429 35.1662C65.035 34.2491 64.478 33.5535 63.7578 33.0795C63.0376 32.6056 62.1944 32.3686 61.228 32.3686C60.2616 32.3686 59.4183 32.6056 58.6982 33.0795C57.978 33.5535 57.4179 34.2491 57.0178 35.1662C56.6238 36.0833 56.4268 37.2098 56.4268 38.5455C56.4268 39.8812 56.6238 41.0076 57.0178 41.9247C57.4179 42.8419 57.978 43.5374 58.6982 44.0114C59.4183 44.4853 60.2616 44.7223 61.228 44.7223C62.1944 44.7223 63.0376 44.4853 63.7578 44.0114C64.478 43.5374 65.035 42.8419 65.429 41.9247C65.8291 41.0076 66.0291 39.8812 66.0291 38.5455ZM84.7235 29.0909H88.7214V41.3707C88.7214 42.7495 88.3921 43.956 87.7335 44.9901C87.081 46.0241 86.167 46.8305 84.9913 47.4091C83.8156 47.9815 82.4461 48.2678 80.8826 48.2678C79.313 48.2678 77.9404 47.9815 76.7647 47.4091C75.5891 46.8305 74.675 46.0241 74.0225 44.9901C73.3701 43.956 73.0439 42.7495 73.0439 41.3707V29.0909H77.0417V41.0291C77.0417 41.7493 77.1987 42.3894 77.5126 42.9496C77.8327 43.5097 78.282 43.9498 78.8606 44.2699C79.4392 44.59 80.1132 44.75 80.8826 44.75C81.6582 44.75 82.3322 44.59 82.9047 44.2699C83.4833 43.9498 83.9295 43.5097 84.2434 42.9496C84.5635 42.3894 84.7235 41.7493 84.7235 41.0291V29.0909ZM107.827 29.0909V48H104.374L96.147 36.0987H96.0085V48H92.0107V29.0909H95.5192L103.681 40.983H103.847V29.0909H107.827ZM117.833 48H111.13V29.0909H117.888C119.79 29.0909 121.428 29.4695 122.8 30.2266C124.173 30.9775 125.229 32.0578 125.967 33.4673C126.712 34.8769 127.084 36.5634 127.084 38.527C127.084 40.4967 126.712 42.1894 125.967 43.6051C125.229 45.0208 124.167 46.1072 122.782 46.8643C121.403 47.6214 119.753 48 117.833 48ZM115.128 44.5746H117.667C118.849 44.5746 119.843 44.3653 120.649 43.9467C121.461 43.522 122.071 42.8665 122.477 41.9801C122.89 41.0876 123.096 39.9366 123.096 38.527C123.096 37.1297 122.89 35.9879 122.477 35.1016C122.071 34.2152 121.465 33.5627 120.658 33.1442C119.852 32.7256 118.858 32.5163 117.676 32.5163H115.128V44.5746ZM135.953 48V45.1193L142.683 38.8871C143.256 38.3331 143.736 37.8345 144.124 37.3913C144.518 36.9482 144.816 36.5142 145.019 36.0895C145.222 35.6586 145.324 35.1939 145.324 34.6953C145.324 34.1413 145.198 33.6643 144.945 33.2642C144.693 32.858 144.348 32.5471 143.911 32.3317C143.474 32.1101 142.979 31.9993 142.425 31.9993C141.846 31.9993 141.342 32.1162 140.911 32.3501C140.48 32.584 140.147 32.9195 139.914 33.3565C139.68 33.7936 139.563 34.3137 139.563 34.9169H135.768C135.768 33.6797 136.048 32.6056 136.608 31.6946C137.168 30.7836 137.953 30.0788 138.963 29.5803C139.972 29.0817 141.135 28.8324 142.453 28.8324C143.807 28.8324 144.985 29.0724 145.989 29.5526C146.998 30.0265 147.783 30.6851 148.343 31.5284C148.903 32.3717 149.183 33.3381 149.183 34.4276C149.183 35.1416 149.042 35.8464 148.759 36.5419C148.482 37.2375 147.986 38.0099 147.272 38.8594C146.558 39.7027 145.552 40.7152 144.253 41.897L141.492 44.6023V44.7315H149.433V48H135.953Z" fill="#1458E4"/>
</svg>
