<svg width="456" height="37" viewBox="0 0 456 37" fill="none" xmlns="http://www.w3.org/2000/svg">
<rect width="126" height="37" rx="18.5" fill="#1458E4" fill-opacity="0.76"/>
<path d="M19.588 19.6C19.588 18.62 19.7793 17.752 20.162 16.996C20.5447 16.24 21.0907 15.6567 21.8 15.246C22.5093 14.826 23.3307 14.616 24.264 14.616C25.3467 14.616 26.252 14.91 26.98 15.498C27.7173 16.086 28.1793 16.8887 28.366 17.906H27.148C26.9707 17.2247 26.6207 16.6927 26.098 16.31C25.5847 15.9273 24.9547 15.736 24.208 15.736C23.536 15.736 22.9433 15.8993 22.43 16.226C21.9167 16.5527 21.52 17.01 21.24 17.598C20.9693 18.1767 20.834 18.844 20.834 19.6C20.834 20.3467 20.9693 21.014 21.24 21.602C21.52 22.19 21.9167 22.6473 22.43 22.974C22.9433 23.3007 23.536 23.464 24.208 23.464C24.964 23.464 25.594 23.2773 26.098 22.904C26.602 22.5213 26.9473 21.9847 27.134 21.294H28.352C28.1653 22.3113 27.708 23.114 26.98 23.702C26.2613 24.29 25.356 24.584 24.264 24.584C23.3307 24.584 22.5093 24.3787 21.8 23.968C21.0907 23.548 20.5447 22.9647 20.162 22.218C19.7793 21.462 19.588 20.5893 19.588 19.6ZM29.8915 14.7H31.1095V24.5H29.8915V14.7ZM33.0086 24.5V14.7H34.1286L39.3926 22.26V14.7H40.5826V24.5H39.4626L34.1986 16.94V24.5H33.0086ZM45.0312 14.7V24.5H43.8553V17.584C43.7246 17.7053 43.5006 17.766 43.1833 17.766H41.6013V16.716H43.1973C43.4213 16.716 43.5893 16.6413 43.7013 16.492C43.8226 16.3333 43.8833 16.128 43.8833 15.876V14.7H45.0312ZM54.4524 14.7C55.0964 14.7 55.6657 14.826 56.1604 15.078C56.655 15.3207 57.033 15.6707 57.2944 16.128C57.565 16.576 57.7004 17.1033 57.7004 17.71C57.7004 18.3167 57.565 18.8487 57.2944 19.306C57.0237 19.7633 56.641 20.118 56.1464 20.37C55.661 20.6127 55.0964 20.734 54.4524 20.734H51.9044V24.5H50.6864V14.7H54.4524ZM51.9044 19.614H54.3404C54.9844 19.614 55.4977 19.4413 55.8804 19.096C56.263 18.7507 56.4544 18.2887 56.4544 17.71C56.4544 17.1313 56.263 16.674 55.8804 16.338C55.507 15.9927 54.9984 15.82 54.3544 15.82H51.9044V19.614ZM62.7509 14.7C63.3949 14.7 63.9642 14.826 64.4589 15.078C64.9535 15.3207 65.3362 15.6707 65.6069 16.128C65.8775 16.576 66.0129 17.1033 66.0129 17.71C66.0129 18.3913 65.8215 18.984 65.4389 19.488C65.0655 19.9827 64.5615 20.3187 63.9269 20.496L66.1249 24.5H64.7529L62.7229 20.734H60.2169V24.5H58.9989V14.7H62.7509ZM60.2169 19.614H62.6529C63.2969 19.614 63.8102 19.4413 64.1929 19.096C64.5755 18.7507 64.7669 18.2887 64.7669 17.71C64.7669 17.1407 64.5755 16.6833 64.1929 16.338C63.8102 15.9927 63.3015 15.82 62.6669 15.82H60.2169V19.614ZM67.5575 14.7H73.8015V15.82H68.7755V18.956H72.9615V20.076H68.7755V23.38H73.9835V24.5H67.5575V14.7ZM76.1904 21.294C76.2371 21.9567 76.5031 22.4887 76.9884 22.89C77.4738 23.282 78.0898 23.478 78.8364 23.478C79.5084 23.478 80.0498 23.3333 80.4604 23.044C80.8804 22.7453 81.0904 22.3347 81.0904 21.812C81.0904 21.4293 80.9738 21.126 80.7404 20.902C80.5164 20.678 80.2224 20.5147 79.8584 20.412C79.5038 20.3 79.0184 20.1927 78.4024 20.09C77.4224 19.922 76.6431 19.6467 76.0644 19.264C75.4858 18.8813 75.1964 18.2607 75.1964 17.402C75.1964 16.8513 75.3364 16.366 75.6164 15.946C75.8964 15.5167 76.2884 15.1853 76.7924 14.952C77.3058 14.7187 77.8891 14.602 78.5424 14.602C79.2331 14.602 79.8444 14.728 80.3764 14.98C80.9084 15.232 81.3284 15.5867 81.6364 16.044C81.9444 16.492 82.1171 17.01 82.1544 17.598H80.9504C80.8758 17.0287 80.6191 16.5713 80.1804 16.226C79.7418 15.8807 79.1958 15.708 78.5424 15.708C77.8891 15.708 77.3711 15.8527 76.9884 16.142C76.6058 16.422 76.4144 16.8187 76.4144 17.332C76.4144 17.7053 76.5264 17.9993 76.7504 18.214C76.9744 18.4193 77.2638 18.578 77.6184 18.69C77.9731 18.7927 78.4584 18.8953 79.0744 18.998C80.0544 19.166 80.8384 19.446 81.4264 19.838C82.0144 20.2207 82.3084 20.8413 82.3084 21.7C82.3084 22.26 82.1591 22.7593 81.8604 23.198C81.5711 23.6367 81.1604 23.9773 80.6284 24.22C80.1058 24.4627 79.5038 24.584 78.8224 24.584C78.0571 24.584 77.3898 24.4487 76.8204 24.178C76.2511 23.898 75.8078 23.5107 75.4904 23.016C75.1824 22.512 75.0144 21.938 74.9864 21.294H76.1904ZM82.7009 24.5L86.4389 14.7H87.8809L91.6049 24.5H90.3029L89.2669 21.854H84.9969L83.9609 24.5H82.7009ZM85.3609 20.748H88.9029L87.1249 16.03L85.3609 20.748ZM92.7137 24.5V14.7H93.9317V23.38H98.3977V24.5H92.7137ZM99.7 14.7H105.944V15.82H100.918V18.956H105.104V20.076H100.918V23.38H106.126V24.5H99.7V14.7Z" fill="white"/>
<rect x="134" y="1" width="75" height="35" rx="17.5" fill="#1458E4" fill-opacity="0.29"/>
<path d="M160 24V26H146V24C146 24 146 20 153 20C160 20 160 24 160 24ZM156.5 14.5C156.5 13.8078 156.295 13.1311 155.91 12.5555C155.526 11.98 154.979 11.5314 154.339 11.2665C153.7 11.0016 152.996 10.9322 152.317 11.0673C151.638 11.2023 151.015 11.5357 150.525 12.0252C150.036 12.5146 149.702 13.1383 149.567 13.8172C149.432 14.4962 149.502 15.1999 149.766 15.8394C150.031 16.479 150.48 17.0256 151.056 17.4102C151.631 17.7948 152.308 18 153 18C153.928 18 154.818 17.6313 155.475 16.9749C156.131 16.3185 156.5 15.4283 156.5 14.5ZM159.94 20C160.555 20.4758 161.058 21.0805 161.414 21.7715C161.77 22.4626 161.97 23.2233 162 24V26H166V24C166 24 166 20.37 159.94 20ZM159 11C158.312 10.9968 157.639 11.2026 157.07 11.59C157.677 12.4388 158.004 13.4563 158.004 14.5C158.004 15.5438 157.677 16.5613 157.07 17.41C157.639 17.7975 158.312 18.0032 159 18C159.928 18 160.818 17.6313 161.475 16.9749C162.131 16.3185 162.5 15.4283 162.5 14.5C162.5 13.5718 162.131 12.6815 161.475 12.0252C160.818 11.3688 159.928 11 159 11Z" fill="white"/>
<path d="M177.67 19.446C178.249 19.558 178.739 19.8193 179.14 20.23C179.541 20.6313 179.742 21.1493 179.742 21.784C179.742 22.3347 179.593 22.8247 179.294 23.254C179.005 23.674 178.589 24.0007 178.048 24.234C177.507 24.4673 176.881 24.584 176.172 24.584C175.089 24.584 174.226 24.3087 173.582 23.758C172.938 23.198 172.616 22.4373 172.616 21.476H173.82C173.829 22.1107 174.053 22.6147 174.492 22.988C174.94 23.352 175.523 23.534 176.242 23.534C176.905 23.534 177.451 23.366 177.88 23.03C178.319 22.694 178.538 22.2507 178.538 21.7C178.538 21.1773 178.328 20.7667 177.908 20.468C177.488 20.1693 176.895 20.02 176.13 20.02H175.29V18.998H176.06C176.779 18.998 177.329 18.8393 177.712 18.522C178.095 18.2047 178.286 17.7893 178.286 17.276C178.286 16.7813 178.09 16.3893 177.698 16.1C177.315 15.8107 176.821 15.666 176.214 15.666C175.579 15.666 175.061 15.8293 174.66 16.156C174.268 16.4733 174.067 16.9073 174.058 17.458H172.882C172.891 16.5713 173.195 15.876 173.792 15.372C174.389 14.868 175.183 14.616 176.172 14.616C176.844 14.616 177.432 14.7233 177.936 14.938C178.44 15.1527 178.823 15.456 179.084 15.848C179.355 16.24 179.49 16.6927 179.49 17.206C179.49 17.8033 179.327 18.298 179 18.69C178.673 19.082 178.23 19.334 177.67 19.446ZM180.71 23.8C180.71 23.5667 180.785 23.38 180.934 23.24C181.084 23.0907 181.275 23.016 181.508 23.016C181.742 23.016 181.933 23.0907 182.082 23.24C182.232 23.38 182.306 23.5667 182.306 23.8C182.306 24.0333 182.232 24.2247 182.082 24.374C181.933 24.514 181.742 24.584 181.508 24.584C181.275 24.584 181.084 24.514 180.934 24.374C180.785 24.2247 180.71 24.0333 180.71 23.8ZM185.535 14.7V24.5H184.359V17.584C184.228 17.7053 184.004 17.766 183.687 17.766H182.105V16.716H183.701C183.925 16.716 184.093 16.6413 184.205 16.492C184.326 16.3333 184.387 16.128 184.387 15.876V14.7H185.535ZM187.526 14.7H189.066L192.538 22.834L195.968 14.7H197.48V24.5H196.29V16.772L193.042 24.5H191.964L188.716 16.772V24.5H187.526V14.7Z" fill="white"/>
<rect x="217" width="126" height="37" rx="18.5" fill="url(#paint0_linear_679_66)"/>
<path d="M224.733 23.5V13.3182H228.173C228.969 13.3182 229.622 13.4541 230.132 13.7259C230.643 13.9943 231.02 14.3639 231.266 14.8345C231.511 15.3052 231.634 15.8404 231.634 16.4403C231.634 17.0402 231.511 17.5722 231.266 18.0362C231.02 18.5002 230.644 18.8648 230.137 19.13C229.63 19.3918 228.982 19.5227 228.193 19.5227H225.409V18.4091H228.153C228.697 18.4091 229.134 18.3295 229.466 18.1705C229.801 18.0114 230.043 17.786 230.192 17.4943C230.344 17.1993 230.42 16.848 230.42 16.4403C230.42 16.0327 230.344 15.6764 230.192 15.3714C230.039 15.0665 229.796 14.8312 229.461 14.6655C229.126 14.4964 228.684 14.4119 228.134 14.4119H225.966V23.5H224.733ZM229.526 18.9261L232.031 23.5H230.599L228.134 18.9261H229.526ZM242.279 18.4091C242.279 19.483 242.085 20.411 241.697 21.1932C241.309 21.9754 240.778 22.5786 240.101 23.0028C239.425 23.4271 238.653 23.6392 237.785 23.6392C236.916 23.6392 236.144 23.4271 235.468 23.0028C234.792 22.5786 234.26 21.9754 233.872 21.1932C233.484 20.411 233.29 19.483 233.29 18.4091C233.29 17.3352 233.484 16.4072 233.872 15.625C234.26 14.8428 234.792 14.2396 235.468 13.8153C236.144 13.3911 236.916 13.179 237.785 13.179C238.653 13.179 239.425 13.3911 240.101 13.8153C240.778 14.2396 241.309 14.8428 241.697 15.625C242.085 16.4072 242.279 17.3352 242.279 18.4091ZM241.086 18.4091C241.086 17.5275 240.938 16.7834 240.643 16.1768C240.352 15.5703 239.956 15.1113 239.455 14.7997C238.958 14.4882 238.401 14.3324 237.785 14.3324C237.168 14.3324 236.61 14.4882 236.109 14.7997C235.612 15.1113 235.216 15.5703 234.921 16.1768C234.629 16.7834 234.483 17.5275 234.483 18.4091C234.483 19.2907 234.629 20.0348 234.921 20.6413C235.216 21.2479 235.612 21.7069 236.109 22.0185C236.61 22.33 237.168 22.4858 237.785 22.4858C238.401 22.4858 238.958 22.33 239.455 22.0185C239.956 21.7069 240.352 21.2479 240.643 20.6413C240.938 20.0348 241.086 19.2907 241.086 18.4091ZM251.034 13.3182H252.267V20.0597C252.267 20.7557 252.103 21.3771 251.775 21.924C251.45 22.4676 250.991 22.8968 250.398 23.2116C249.804 23.5232 249.108 23.679 248.309 23.679C247.511 23.679 246.815 23.5232 246.221 23.2116C245.628 22.8968 245.167 22.4676 244.839 21.924C244.515 21.3771 244.352 20.7557 244.352 20.0597V13.3182H245.585V19.9602C245.585 20.4574 245.694 20.8999 245.913 21.2876C246.132 21.6721 246.443 21.9754 246.848 22.1974C247.256 22.4162 247.743 22.5256 248.309 22.5256C248.876 22.5256 249.363 22.4162 249.771 22.1974C250.179 21.9754 250.49 21.6721 250.706 21.2876C250.925 20.8999 251.034 20.4574 251.034 19.9602V13.3182ZM262.803 13.3182V23.5H261.61L256.061 15.5057H255.962V23.5H254.729V13.3182H255.922L261.49 21.3324H261.59V13.3182H262.803ZM268.412 23.5H265.27V13.3182H268.551C269.539 13.3182 270.384 13.522 271.087 13.9297C271.789 14.334 272.328 14.9157 272.703 15.6747C273.077 16.4304 273.264 17.3352 273.264 18.3892C273.264 19.4498 273.075 20.3629 272.698 21.1286C272.32 21.8909 271.77 22.4775 271.047 22.8885C270.325 23.2962 269.446 23.5 268.412 23.5ZM266.503 22.4062H268.333C269.174 22.4062 269.872 22.2438 270.426 21.919C270.979 21.5942 271.392 21.1319 271.664 20.532C271.935 19.9321 272.071 19.2178 272.071 18.3892C272.071 17.5672 271.937 16.8596 271.669 16.2663C271.4 15.6697 270.999 15.2124 270.465 14.8942C269.932 14.5727 269.267 14.4119 268.472 14.4119H266.503V22.4062ZM282.671 13.3182V23.5H281.438V14.6108H281.378L278.892 16.2614V15.0085L281.438 13.3182H282.671ZM289.715 23.5V13.3182H295.86V14.4119H290.948V17.8523H295.542V18.946H290.948V22.4062H295.94V23.5H289.715ZM306.156 13.3182V23.5H304.963L299.415 15.5057H299.316V23.5H298.083V13.3182H299.276L304.844 21.3324H304.943V13.3182H306.156ZM311.766 23.5H308.624V13.3182H311.905C312.893 13.3182 313.738 13.522 314.44 13.9297C315.143 14.334 315.682 14.9157 316.056 15.6747C316.431 16.4304 316.618 17.3352 316.618 18.3892C316.618 19.4498 316.429 20.3629 316.051 21.1286C315.673 21.8909 315.123 22.4775 314.401 22.8885C313.678 23.2962 312.8 23.5 311.766 23.5ZM309.857 22.4062H311.686C312.528 22.4062 313.226 22.2438 313.779 21.919C314.333 21.5942 314.745 21.1319 315.017 20.532C315.289 19.9321 315.425 19.2178 315.425 18.3892C315.425 17.5672 315.29 16.8596 315.022 16.2663C314.754 15.6697 314.353 15.2124 313.819 14.8942C313.285 14.5727 312.621 14.4119 311.825 14.4119H309.857V22.4062ZM318.686 23.5V13.3182H324.831V14.4119H319.919V17.8523H324.513V18.946H319.919V22.4062H324.911V23.5H318.686ZM330.195 23.5H327.053V13.3182H330.335C331.322 13.3182 332.167 13.522 332.87 13.9297C333.573 14.334 334.111 14.9157 334.486 15.6747C334.86 16.4304 335.048 17.3352 335.048 18.3892C335.048 19.4498 334.859 20.3629 334.481 21.1286C334.103 21.8909 333.553 22.4775 332.83 22.8885C332.108 23.2962 331.229 23.5 330.195 23.5ZM328.286 22.4062H330.116C330.958 22.4062 331.655 22.2438 332.209 21.919C332.762 21.5942 333.175 21.1319 333.447 20.532C333.719 19.9321 333.854 19.2178 333.854 18.3892C333.854 17.5672 333.72 16.8596 333.452 16.2663C333.183 15.6697 332.782 15.2124 332.249 14.8942C331.715 14.5727 331.05 14.4119 330.255 14.4119H328.286V22.4062Z" fill="white"/>
<rect x="373" width="83" height="37" rx="18.5" fill="#4CB051"/>
<circle cx="394" cy="18.5" r="5" fill="#54C25A"/>
<path d="M409.885 23.5V13.3182H412.038V21.7251H416.403V23.5H409.885ZM419.981 13.3182V23.5H417.828V13.3182H419.981ZM423.592 13.3182L426.053 21.054H426.147L428.613 13.3182H430.999L427.489 23.5H424.715L421.2 13.3182H423.592ZM432.225 23.5V13.3182H439.086V15.093H434.377V17.5192H438.733V19.294H434.377V21.7251H439.105V23.5H432.225Z" fill="white"/>
<defs>
<linearGradient id="paint0_linear_679_66" x1="280" y1="0" x2="280" y2="37" gradientUnits="userSpaceOnUse">
<stop stop-color="#E41414" stop-opacity="0.78"/>
<stop offset="1" stop-color="#FF755F"/>
</linearGradient>
</defs>
</svg>
