<svg width="146" height="53" viewBox="0 0 146 53" fill="none" xmlns="http://www.w3.org/2000/svg">
<rect width="145.5" height="53" rx="8" fill="#90B4FF"/>
<path d="M41.5512 29.6307C39.5476 37.6674 31.4077 42.5583 23.3701 40.5542C15.3358 38.5507 10.4448 30.4103 12.4493 22.3742C14.452 14.3367 22.5919 9.44531 30.627 11.4489C38.6641 13.4525 43.5551 21.5936 41.5512 29.6307Z" fill="#50AF95"/>
<path fill-rule="evenodd" clip-rule="evenodd" d="M28.8999 27.7024C28.7939 27.7103 28.2458 27.743 27.0233 27.743C26.0509 27.743 25.3605 27.7138 25.1183 27.7024C21.3606 27.537 18.5558 26.8829 18.5558 26.0997C18.5558 25.3165 21.3606 24.6633 25.1183 24.4953V27.0508C25.3641 27.0686 26.0677 27.1101 27.04 27.1101C28.2069 27.1101 28.7911 27.0614 28.8964 27.0517V24.497C32.6462 24.6642 35.4447 25.3182 35.4447 26.0997C35.4447 26.8812 32.6471 27.5352 28.8964 27.7014L28.8999 27.7024ZM28.8999 24.2328V21.946H34.133V18.4587H19.8853V21.946H25.1175V24.2319C20.8647 24.4273 17.6665 25.2696 17.6665 26.2791C17.6665 27.2886 20.8647 28.1302 25.1175 28.3265V35.6544H28.899V28.3237C33.142 28.1284 36.335 27.2868 36.335 26.2782C36.335 25.2696 33.1456 24.429 28.8999 24.2328Z" fill="white"/>
<path d="M56.2486 18.4545H59.3239V27.9006C59.3239 28.9612 59.0705 29.8892 58.5639 30.6847C58.062 31.4801 57.3589 32.1004 56.4545 32.5455C55.5502 32.9858 54.4967 33.206 53.294 33.206C52.0866 33.206 51.0308 32.9858 50.1264 32.5455C49.2221 32.1004 48.5189 31.4801 48.017 30.6847C47.5152 29.8892 47.2642 28.9612 47.2642 27.9006V18.4545H50.3395V27.6378C50.3395 28.1918 50.4602 28.6842 50.7017 29.1151C50.9479 29.5459 51.2936 29.8845 51.7386 30.1307C52.1837 30.3769 52.7022 30.5 53.294 30.5C53.8906 30.5 54.4091 30.3769 54.8494 30.1307C55.2945 29.8845 55.6378 29.5459 55.8793 29.1151C56.1255 28.6842 56.2486 28.1918 56.2486 27.6378V18.4545ZM69.7447 22.6378C69.6879 22.0649 69.444 21.6198 69.0131 21.3026C68.5823 20.9853 67.9975 20.8267 67.2589 20.8267C66.757 20.8267 66.3332 20.8977 65.9876 21.0398C65.6419 21.1771 65.3768 21.3688 65.1921 21.6151C65.0122 21.8613 64.9222 22.1406 64.9222 22.4531C64.9128 22.7135 64.9672 22.9408 65.0856 23.1349C65.2087 23.3291 65.3768 23.4972 65.5898 23.6392C65.8029 23.7765 66.0491 23.8973 66.3285 24.0014C66.6078 24.1009 66.9061 24.1861 67.2234 24.2571L68.5302 24.5696C69.1647 24.7116 69.747 24.901 70.2773 25.1378C70.8076 25.3745 71.2669 25.6657 71.6552 26.0114C72.0434 26.357 72.3441 26.7642 72.5572 27.233C72.775 27.7017 72.8862 28.2391 72.891 28.8452C72.8862 29.7353 72.659 30.5071 72.2092 31.1605C71.7641 31.8092 71.1201 32.3134 70.2773 32.6733C69.4393 33.0284 68.4284 33.206 67.2447 33.206C66.0704 33.206 65.0477 33.026 64.1765 32.6662C63.31 32.3063 62.6329 31.7737 62.1452 31.0682C61.6623 30.358 61.409 29.4796 61.3853 28.4332H64.3612C64.3943 28.9209 64.534 29.3281 64.7802 29.6548C65.0311 29.9768 65.3649 30.2206 65.7816 30.3864C66.203 30.5473 66.6789 30.6278 67.2092 30.6278C67.73 30.6278 68.1822 30.5521 68.5657 30.4006C68.954 30.2491 69.2546 30.0384 69.4677 29.7685C69.6808 29.4986 69.7873 29.1884 69.7873 28.8381C69.7873 28.5114 69.6902 28.2367 69.4961 28.0142C69.3067 27.7917 69.0273 27.6023 68.658 27.446C68.2934 27.2898 67.846 27.1477 67.3157 27.0199L65.7319 26.6222C64.5056 26.3239 63.5373 25.8575 62.8271 25.223C62.1168 24.5885 61.7641 23.7339 61.7688 22.6591C61.7641 21.7784 61.9985 21.009 62.4719 20.3509C62.9502 19.6927 63.6059 19.179 64.4393 18.8097C65.2726 18.4403 66.2196 18.2557 67.2802 18.2557C68.3597 18.2557 69.302 18.4403 70.1069 18.8097C70.9165 19.179 71.5463 19.6927 71.9961 20.3509C72.4459 21.009 72.6779 21.7713 72.6921 22.6378H69.7447ZM80.1158 33H74.9595V18.4545H80.1584C81.6214 18.4545 82.8809 18.7457 83.9368 19.3281C84.9927 19.9058 85.8047 20.7367 86.3729 21.821C86.9458 22.9053 87.2322 24.2027 87.2322 25.7131C87.2322 27.2282 86.9458 28.5303 86.3729 29.6193C85.8047 30.7083 84.9879 31.544 83.9226 32.1264C82.862 32.7088 81.593 33 80.1158 33ZM78.0348 30.3651H79.9879C80.897 30.3651 81.6617 30.2041 82.282 29.8821C82.907 29.5554 83.3757 29.0511 83.6882 28.3693C84.0054 27.6828 84.1641 26.7973 84.1641 25.7131C84.1641 24.6383 84.0054 23.7599 83.6882 23.0781C83.3757 22.3963 82.9093 21.8944 82.2891 21.5724C81.6688 21.2505 80.9041 21.0895 79.995 21.0895H78.0348V30.3651ZM88.2923 20.9901V18.4545H100.238V20.9901H95.7852V33H92.7454V20.9901H88.2923Z" fill="white"/>
</svg>
