<svg width="146" height="53" viewBox="0 0 146 53" fill="none" xmlns="http://www.w3.org/2000/svg">
<rect x="0.5" width="145.5" height="53" rx="8" fill="#90B4FF"/>
<path fill-rule="evenodd" clip-rule="evenodd" d="M50.7635 39.8133H44.4415L39.7006 21.1948C39.4756 20.3383 38.9978 19.5812 38.295 19.2243C36.5411 18.3275 34.6084 17.6138 32.5 17.2538V16.537H42.6845C44.0901 16.537 45.1443 17.6138 45.32 18.8644L47.7798 32.2945L54.0989 16.537H60.2453L50.7635 39.8133ZM63.7604 39.8133H57.7896L62.7062 16.537H68.677L63.7604 39.8133ZM76.4015 22.9851C76.5773 21.7314 77.6315 21.0146 78.8613 21.0146C80.7941 20.8346 82.8995 21.1946 84.6565 22.0883L85.7107 17.0768C83.9537 16.36 82.0209 16 80.2669 16C74.4719 16 70.2551 19.2241 70.2551 23.6988C70.2551 27.1028 73.2421 28.8902 75.3506 29.9671C77.6315 31.0407 78.5099 31.7574 78.3343 32.831C78.3343 34.4417 76.5773 35.1584 74.8233 35.1584C72.7149 35.1584 70.6065 34.6216 68.677 33.7249L67.6228 38.7395C69.7312 39.6332 72.0121 39.9931 74.1205 39.9931C80.6183 40.17 84.6565 36.949 84.6565 32.1143C84.6565 26.0261 76.4015 25.6692 76.4015 22.9851ZM105.55 39.8133L100.81 16.537H95.7175C94.6633 16.537 93.6091 17.2538 93.2577 18.3275L84.4787 39.8133H90.6251L91.8521 36.4124H99.404L100.107 39.8133H105.55ZM96.597 22.8056L98.3509 31.5779H93.4344L96.597 22.8056Z" fill="#EEF9FF"/>
</svg>
