<svg width="72" height="75" viewBox="0 0 72 75" fill="none" xmlns="http://www.w3.org/2000/svg">
<path d="M21.327 29.111C21.327 29.111 17.3383 24.7363 8.33175 25.8943C-0.67484 27.0523 -0.160178 32.4563 2.02714 33.0996C4.21445 33.7429 13.3497 36.7022 14.6364 37.9889L22.485 34.3863L21.327 29.111Z" fill="#E49A12"/>
<path d="M5.38087 31.2803C6.45497 31.0122 7.62325 31.0281 8.71949 31.0533C12.195 31.1331 15.6227 32.0358 18.8743 33.2103C19.5001 33.4362 19.7667 32.4414 19.1476 32.2175C15.8702 31.0338 12.4662 30.1918 8.97528 30.0328C7.7123 29.9751 6.34484 29.9782 5.10656 30.2875C4.46375 30.4481 4.73703 31.4409 5.38087 31.2803Z" fill="#FFCA3C"/>
<path d="M37.5391 26.1513C37.5391 26.1513 41.2704 21.5194 46.417 20.2327C51.5636 18.9461 52.8503 20.7474 52.8503 22.6774C52.8503 24.6074 47.961 26.666 47.575 30.912L39.855 36.7019L37.5391 26.1513Z" fill="#FFCA3C"/>
<path d="M40.7372 31.8206C41.8273 27.3981 45.2554 23.445 49.6419 22.1445C50.2765 21.9561 50.0063 20.9628 49.3686 21.1517C44.6445 22.5526 40.9209 26.7759 39.7455 31.5474C39.5864 32.1917 40.5792 32.465 40.7372 31.8206Z" fill="#E49A12"/>
<path d="M18.4964 37.6026C16.8238 16.2441 29.1757 1.70493 33.5503 0.28961C37.9249 -1.12571 40.1122 2.60559 38.6969 12.3842C37.2816 22.1627 41.7849 32.07 41.7849 32.07L36.7669 51.3698L18.4964 37.6026Z" fill="#FBE6AD"/>
<path d="M30.9191 5.13393C26.5033 12.4298 23.8131 21.8255 25.1204 30.3199C25.2207 30.9746 26.2125 30.6957 26.1127 30.0467C24.8507 21.8435 27.548 12.6917 31.8074 5.65426C32.1527 5.08452 31.2618 4.56729 30.9191 5.13393Z" fill="#FFCA3C"/>
<path d="M34.3845 8.94575C31.6095 16.537 31.6738 25.7083 34.4699 33.2368C34.6985 33.8533 35.6938 33.5867 35.4622 32.9635C32.7237 25.5884 32.6583 16.6569 35.3768 9.21904C35.6053 8.59424 34.6099 8.32713 34.3845 8.94575Z" fill="#FFCA3C"/>
<path d="M33.5077 43.3066C33.5077 43.3066 33.2504 31.6413 45.6023 29.2394C57.9542 26.8375 64.0447 37.0447 61.1281 41.934C58.2115 46.8233 48.347 35.93 45.0017 41.3339C41.6564 46.7379 58.4688 60.977 66.7034 61.9204L66.9613 64.5792C66.9613 64.5792 40.8844 89.7122 33.5077 43.3066Z" fill="#E49A12"/>
<path d="M58.3 35.9996C56.3839 34.6558 54.0324 33.7346 51.734 33.3573C47.1838 32.6105 43.468 34.8982 41.2987 38.8426C40.9786 39.4247 41.8674 39.944 42.1875 39.3624C44.3043 35.5143 47.8107 33.5977 52.1616 34.4782C54.1313 34.8771 56.1302 35.7304 57.7807 36.8879C58.3252 37.2703 58.8389 36.3774 58.3 35.9996Z" fill="#FFCA3C"/>
<path d="M43.9912 50.4773C45.9922 57.1072 52.9334 61.2775 59.3621 62.4169C60.0111 62.5317 60.2885 61.5399 59.6354 61.4242C53.5732 60.3501 46.8825 56.4963 44.9829 50.204C44.792 49.5699 43.7987 49.8401 43.9912 50.4773Z" fill="#FFCA3C"/>
<path d="M66.0179 63.5495C66.0179 63.5495 53.5805 68.9534 45.174 58.6602C36.7676 48.3669 34.3661 33.4423 18.4971 34.1283C2.62849 34.8143 -3.11875 52.9135 1.59916 55.7441C6.31707 58.5747 15.7524 46.6521 21.671 52.3988C27.5896 58.1455 25.8742 66.3801 40.7135 72.2987C55.5527 78.2173 66.3606 68.8675 67.9046 66.3801L66.0179 63.5495Z" fill="#FFCA3C"/>
<path d="M4.6169 49.5704C7.12691 45.9065 12.0316 44.0851 16.2673 43.8206C16.9266 43.7794 16.9307 42.7501 16.2673 42.7912C11.6379 43.0805 6.4563 45.0681 3.72859 49.0506C3.35186 49.6002 4.24429 50.1144 4.6169 49.5704Z" fill="#E49A12"/>
<path d="M22.4429 45.0218C23.5129 45.0553 24.9791 46.1355 25.8587 46.9276C29.1819 49.9224 30.4984 54.2945 32.9245 57.9234C35.0372 61.0839 37.7953 63.8198 40.9285 65.9644C42.8251 67.2629 45.2795 68.7071 47.6619 68.6963C48.3253 68.6932 48.3258 67.6639 47.6619 67.6669C45.1719 67.6783 42.6326 65.9403 40.7016 64.5522C37.2569 62.0751 34.4258 58.7427 32.3728 55.0443C30.4799 51.6332 28.9668 47.9636 25.7728 45.5154C24.8541 44.8113 23.6518 44.0306 22.4434 43.9925C21.779 43.9719 21.781 45.0012 22.4429 45.0218Z" fill="#E49A12"/>
<path d="M71.3995 65.1371C71.0855 65.4048 70.6326 65.6003 70.0253 65.7187C68.0331 66.0996 66.9373 67.7104 66.9373 67.7104C63.8494 66.9385 65.6507 61.6014 65.6507 61.6014C68.1669 61.6014 68.4088 60.7991 69.1396 59.9807C69.155 59.9602 69.1756 59.9447 69.1911 59.9241C69.963 59.0904 71.0546 60.377 71.7031 62.2401C72.1457 63.5422 72.1256 64.5303 71.3995 65.1371Z" fill="#7F4406"/>
<path d="M71.3992 65.1367C70.4882 64.6683 69.567 63.6442 69.2531 62.306C69.0107 61.2819 69.0421 60.5099 69.1393 59.9798C69.1548 59.9592 69.1754 59.9437 69.1908 59.9231C69.9628 59.0894 71.0544 60.3761 71.7029 62.2391C72.1455 63.5417 72.1254 64.5299 71.3992 65.1367Z" fill="#B96A17"/>
</svg>
