<svg width="582" height="41" viewBox="0 0 582 41" fill="none" xmlns="http://www.w3.org/2000/svg">
<rect width="582" height="41" rx="20.5" fill="#D9D9D9"/>
<rect width="310" height="41" rx="20.5" fill="#1458E4"/>
<path d="M34.0114 27V15.3636H38.6023C39.4811 15.3636 40.2311 15.5208 40.8523 15.8352C41.4773 16.1458 41.9527 16.5871 42.2784 17.1591C42.608 17.7273 42.7727 18.3958 42.7727 19.1648C42.7727 19.9375 42.6061 20.6023 42.2727 21.1591C41.9394 21.7121 41.4564 22.1364 40.8239 22.4318C40.1951 22.7273 39.4337 22.875 38.5398 22.875H35.4659V20.8977H38.142C38.6117 20.8977 39.0019 20.8333 39.3125 20.7045C39.6231 20.5758 39.8542 20.3826 40.0057 20.125C40.161 19.8674 40.2386 19.5473 40.2386 19.1648C40.2386 18.7784 40.161 18.4527 40.0057 18.1875C39.8542 17.9223 39.6212 17.7216 39.3068 17.5852C38.9962 17.4451 38.6042 17.375 38.1307 17.375H36.4716V27H34.0114ZM40.2955 21.7045L43.1875 27H40.4716L37.642 21.7045H40.2955ZM48.3026 27.1705C47.4048 27.1705 46.6321 26.9886 45.9844 26.625C45.3404 26.2576 44.8442 25.7386 44.4957 25.0682C44.1473 24.3939 43.973 23.5966 43.973 22.6761C43.973 21.7784 44.1473 20.9905 44.4957 20.3125C44.8442 19.6345 45.3348 19.1061 45.9673 18.7273C46.6037 18.3485 47.3499 18.1591 48.206 18.1591C48.7817 18.1591 49.3177 18.2519 49.8139 18.4375C50.3139 18.6193 50.7495 18.8939 51.1207 19.2614C51.4957 19.6288 51.7874 20.0909 51.9957 20.6477C52.2041 21.2008 52.3082 21.8485 52.3082 22.5909V23.2557H44.9389V21.7557H50.0298C50.0298 21.4072 49.9541 21.0985 49.8026 20.8295C49.651 20.5606 49.4408 20.3504 49.1719 20.1989C48.9067 20.0436 48.598 19.9659 48.2457 19.9659C47.8783 19.9659 47.5526 20.0511 47.2685 20.2216C46.9882 20.3883 46.7685 20.6136 46.6094 20.8977C46.4503 21.178 46.3688 21.4905 46.3651 21.8352V23.2614C46.3651 23.6932 46.4446 24.0663 46.6037 24.3807C46.7666 24.6951 46.9957 24.9375 47.2912 25.108C47.5866 25.2784 47.937 25.3636 48.3423 25.3636C48.6113 25.3636 48.8575 25.3258 49.081 25.25C49.3045 25.1742 49.4957 25.0606 49.6548 24.9091C49.8139 24.7576 49.9351 24.572 50.0185 24.3523L52.2571 24.5C52.1435 25.0379 51.9105 25.5076 51.5582 25.9091C51.2098 26.3068 50.759 26.6174 50.206 26.8409C49.6567 27.0606 49.0223 27.1705 48.3026 27.1705ZM53.8878 27V18.2727H56.1946V19.8125H56.2969C56.4787 19.3011 56.7817 18.8977 57.206 18.6023C57.6302 18.3068 58.1378 18.1591 58.7287 18.1591C59.3272 18.1591 59.8366 18.3087 60.2571 18.608C60.6776 18.9034 60.9579 19.3049 61.098 19.8125H61.1889C61.367 19.3125 61.6889 18.9129 62.1548 18.6136C62.6245 18.3106 63.1795 18.1591 63.8196 18.1591C64.634 18.1591 65.295 18.4186 65.8026 18.9375C66.3139 19.4527 66.5696 20.1837 66.5696 21.1307V27H64.1548V21.608C64.1548 21.1231 64.026 20.7595 63.7685 20.517C63.5109 20.2746 63.1889 20.1534 62.8026 20.1534C62.3632 20.1534 62.0204 20.2936 61.7741 20.5739C61.5279 20.8504 61.4048 21.2159 61.4048 21.6705V27H59.0582V21.5568C59.0582 21.1288 58.9351 20.7879 58.6889 20.5341C58.4465 20.2803 58.1264 20.1534 57.7287 20.1534C57.4598 20.1534 57.2173 20.2216 57.0014 20.358C56.7893 20.4905 56.6207 20.678 56.4957 20.9205C56.3707 21.1591 56.3082 21.4394 56.3082 21.7614V27H53.8878ZM70.9702 27.1648C70.4134 27.1648 69.9171 27.0682 69.4815 26.875C69.0459 26.678 68.7012 26.3883 68.4474 26.0057C68.1974 25.6193 68.0724 25.1383 68.0724 24.5625C68.0724 24.0777 68.1615 23.6705 68.3395 23.3409C68.5175 23.0114 68.7599 22.7462 69.0668 22.5455C69.3736 22.3447 69.7221 22.1932 70.1122 22.0909C70.5062 21.9886 70.919 21.9167 71.3509 21.875C71.8584 21.822 72.2675 21.7727 72.5781 21.7273C72.8887 21.678 73.1141 21.6061 73.2543 21.5114C73.3944 21.4167 73.4645 21.2765 73.4645 21.0909V21.0568C73.4645 20.697 73.3509 20.4186 73.1236 20.2216C72.9001 20.0246 72.5819 19.9261 72.169 19.9261C71.7334 19.9261 71.3868 20.0227 71.1293 20.2159C70.8717 20.4053 70.7012 20.6439 70.6179 20.9318L68.3793 20.75C68.4929 20.2197 68.7164 19.7614 69.0497 19.375C69.383 18.9848 69.813 18.6856 70.3395 18.4773C70.8698 18.2652 71.4834 18.1591 72.1804 18.1591C72.6652 18.1591 73.1293 18.2159 73.5724 18.3295C74.0194 18.4432 74.4152 18.6193 74.7599 18.858C75.1084 19.0966 75.383 19.4034 75.5838 19.7784C75.7846 20.1496 75.8849 20.5947 75.8849 21.1136V27H73.5895V25.7898H73.5213C73.3812 26.0625 73.1937 26.303 72.9588 26.5114C72.724 26.7159 72.4418 26.8769 72.1122 26.9943C71.7827 27.108 71.402 27.1648 70.9702 27.1648ZM71.6634 25.4943C72.0194 25.4943 72.3338 25.4242 72.6065 25.2841C72.8793 25.1402 73.0933 24.947 73.2486 24.7045C73.4039 24.4621 73.4815 24.1875 73.4815 23.8807V22.9545C73.4058 23.0038 73.3016 23.0492 73.169 23.0909C73.0402 23.1288 72.8944 23.1648 72.7315 23.1989C72.5687 23.2292 72.4058 23.2576 72.2429 23.2841C72.08 23.3068 71.9323 23.3277 71.7997 23.3466C71.5156 23.3883 71.2675 23.4545 71.0554 23.5455C70.8433 23.6364 70.6785 23.7595 70.5611 23.9148C70.4437 24.0663 70.3849 24.2557 70.3849 24.483C70.3849 24.8125 70.5043 25.0644 70.7429 25.2386C70.9853 25.4091 71.2921 25.4943 71.6634 25.4943ZM77.7628 27V18.2727H80.1832V27H77.7628ZM78.9787 17.1477C78.6188 17.1477 78.3101 17.0284 78.0526 16.7898C77.7988 16.5473 77.6719 16.2576 77.6719 15.9205C77.6719 15.5871 77.7988 15.3011 78.0526 15.0625C78.3101 14.8201 78.6188 14.6989 78.9787 14.6989C79.3385 14.6989 79.6454 14.8201 79.8991 15.0625C80.1567 15.3011 80.2855 15.5871 80.2855 15.9205C80.2855 16.2576 80.1567 16.5473 79.8991 16.7898C79.6454 17.0284 79.3385 17.1477 78.9787 17.1477ZM84.5426 21.9545V27H82.1222V18.2727H84.429V19.8125H84.5312C84.7244 19.3049 85.0483 18.9034 85.5028 18.608C85.9574 18.3087 86.5085 18.1591 87.1562 18.1591C87.7623 18.1591 88.2907 18.2917 88.7415 18.5568C89.1922 18.822 89.5426 19.2008 89.7926 19.6932C90.0426 20.1818 90.1676 20.7652 90.1676 21.4432V27H87.7472V21.875C87.7509 21.3409 87.6146 20.9242 87.3381 20.625C87.0616 20.322 86.6809 20.1705 86.196 20.1705C85.8703 20.1705 85.5824 20.2405 85.3324 20.3807C85.0862 20.5208 84.893 20.7254 84.7528 20.9943C84.6165 21.2595 84.5464 21.5795 84.5426 21.9545ZM92.0753 27V18.2727H94.4957V27H92.0753ZM93.2912 17.1477C92.9313 17.1477 92.6226 17.0284 92.3651 16.7898C92.1113 16.5473 91.9844 16.2576 91.9844 15.9205C91.9844 15.5871 92.1113 15.3011 92.3651 15.0625C92.6226 14.8201 92.9313 14.6989 93.2912 14.6989C93.651 14.6989 93.9579 14.8201 94.2116 15.0625C94.4692 15.3011 94.598 15.5871 94.598 15.9205C94.598 16.2576 94.4692 16.5473 94.2116 16.7898C93.9579 17.0284 93.651 17.1477 93.2912 17.1477ZM98.8551 21.9545V27H96.4347V18.2727H98.7415V19.8125H98.8438C99.0369 19.3049 99.3608 18.9034 99.8153 18.608C100.27 18.3087 100.821 18.1591 101.469 18.1591C102.075 18.1591 102.603 18.2917 103.054 18.5568C103.505 18.822 103.855 19.2008 104.105 19.6932C104.355 20.1818 104.48 20.7652 104.48 21.4432V27H102.06V21.875C102.063 21.3409 101.927 20.9242 101.651 20.625C101.374 20.322 100.993 20.1705 100.509 20.1705C100.183 20.1705 99.8949 20.2405 99.6449 20.3807C99.3987 20.5208 99.2055 20.7254 99.0653 20.9943C98.929 21.2595 98.8589 21.5795 98.8551 21.9545ZM110.32 30.4545C109.536 30.4545 108.863 30.3466 108.303 30.1307C107.746 29.9186 107.303 29.6288 106.973 29.2614C106.643 28.8939 106.429 28.4811 106.331 28.0227L108.57 27.7216C108.638 27.8958 108.746 28.0587 108.893 28.2102C109.041 28.3617 109.236 28.483 109.479 28.5739C109.725 28.6686 110.024 28.7159 110.376 28.7159C110.903 28.7159 111.337 28.5871 111.678 28.3295C112.022 28.0758 112.195 27.6496 112.195 27.0511V25.4545H112.092C111.986 25.697 111.827 25.9261 111.615 26.142C111.403 26.358 111.13 26.5341 110.797 26.6705C110.464 26.8068 110.066 26.875 109.604 26.875C108.948 26.875 108.352 26.7235 107.814 26.4205C107.28 26.1136 106.854 25.6458 106.536 25.017C106.221 24.3845 106.064 23.5852 106.064 22.6193C106.064 21.6307 106.225 20.8049 106.547 20.142C106.869 19.4792 107.297 18.983 107.831 18.6534C108.369 18.3239 108.958 18.1591 109.598 18.1591C110.087 18.1591 110.496 18.2424 110.825 18.4091C111.155 18.572 111.42 18.7765 111.621 19.0227C111.825 19.2652 111.982 19.5038 112.092 19.7386H112.183V18.2727H114.587V27.0852C114.587 27.8277 114.405 28.4489 114.041 28.9489C113.678 29.4489 113.174 29.8239 112.53 30.0739C111.89 30.3277 111.153 30.4545 110.32 30.4545ZM110.371 25.0568C110.761 25.0568 111.09 24.9602 111.359 24.767C111.632 24.5701 111.84 24.2898 111.984 23.9261C112.132 23.5587 112.206 23.1193 112.206 22.608C112.206 22.0966 112.134 21.6534 111.99 21.2784C111.846 20.8996 111.638 20.6061 111.365 20.3977C111.092 20.1894 110.761 20.0852 110.371 20.0852C109.973 20.0852 109.638 20.1932 109.365 20.4091C109.092 20.6212 108.886 20.9167 108.746 21.2955C108.606 21.6742 108.536 22.1117 108.536 22.608C108.536 23.1117 108.606 23.5473 108.746 23.9148C108.89 24.2784 109.096 24.5606 109.365 24.7614C109.638 24.9583 109.973 25.0568 110.371 25.0568ZM119.818 17.392V15.3636H129.375V17.392H125.812V27H123.381V17.392H119.818ZM133.581 27.1705C132.698 27.1705 131.935 26.983 131.291 26.608C130.651 26.2292 130.157 25.7027 129.808 25.0284C129.46 24.3504 129.286 23.5644 129.286 22.6705C129.286 21.7689 129.46 20.9811 129.808 20.3068C130.157 19.6288 130.651 19.1023 131.291 18.7273C131.935 18.3485 132.698 18.1591 133.581 18.1591C134.464 18.1591 135.225 18.3485 135.865 18.7273C136.509 19.1023 137.005 19.6288 137.354 20.3068C137.702 20.9811 137.876 21.7689 137.876 22.6705C137.876 23.5644 137.702 24.3504 137.354 25.0284C137.005 25.7027 136.509 26.2292 135.865 26.608C135.225 26.983 134.464 27.1705 133.581 27.1705ZM133.592 25.2955C133.994 25.2955 134.329 25.1818 134.598 24.9545C134.867 24.7235 135.07 24.4091 135.206 24.0114C135.346 23.6136 135.416 23.161 135.416 22.6534C135.416 22.1458 135.346 21.6932 135.206 21.2955C135.07 20.8977 134.867 20.5833 134.598 20.3523C134.329 20.1212 133.994 20.0057 133.592 20.0057C133.187 20.0057 132.846 20.1212 132.57 20.3523C132.297 20.5833 132.09 20.8977 131.95 21.2955C131.814 21.6932 131.746 22.1458 131.746 22.6534C131.746 23.161 131.814 23.6136 131.95 24.0114C132.09 24.4091 132.297 24.7235 132.57 24.9545C132.846 25.1818 133.187 25.2955 133.592 25.2955ZM141.643 24.4886L141.649 21.5852H142.001L144.797 18.2727H147.575L143.82 22.6591H143.246L141.643 24.4886ZM139.45 27V15.3636H141.871V27H139.45ZM144.905 27L142.337 23.1989L143.95 21.4886L147.74 27H144.905ZM152.381 27.1705C151.483 27.1705 150.71 26.9886 150.062 26.625C149.419 26.2576 148.922 25.7386 148.574 25.0682C148.225 24.3939 148.051 23.5966 148.051 22.6761C148.051 21.7784 148.225 20.9905 148.574 20.3125C148.922 19.6345 149.413 19.1061 150.045 18.7273C150.682 18.3485 151.428 18.1591 152.284 18.1591C152.86 18.1591 153.396 18.2519 153.892 18.4375C154.392 18.6193 154.828 18.8939 155.199 19.2614C155.574 19.6288 155.866 20.0909 156.074 20.6477C156.282 21.2008 156.386 21.8485 156.386 22.5909V23.2557H149.017V21.7557H154.108C154.108 21.4072 154.032 21.0985 153.881 20.8295C153.729 20.5606 153.519 20.3504 153.25 20.1989C152.985 20.0436 152.676 19.9659 152.324 19.9659C151.956 19.9659 151.631 20.0511 151.347 20.2216C151.066 20.3883 150.847 20.6136 150.688 20.8977C150.528 21.178 150.447 21.4905 150.443 21.8352V23.2614C150.443 23.6932 150.523 24.0663 150.682 24.3807C150.845 24.6951 151.074 24.9375 151.369 25.108C151.665 25.2784 152.015 25.3636 152.42 25.3636C152.689 25.3636 152.936 25.3258 153.159 25.25C153.383 25.1742 153.574 25.0606 153.733 24.9091C153.892 24.7576 154.013 24.572 154.097 24.3523L156.335 24.5C156.222 25.0379 155.989 25.5076 155.636 25.9091C155.288 26.3068 154.837 26.6174 154.284 26.8409C153.735 27.0606 153.1 27.1705 152.381 27.1705ZM160.386 21.9545V27H157.966V18.2727H160.273V19.8125H160.375C160.568 19.3049 160.892 18.9034 161.347 18.608C161.801 18.3087 162.352 18.1591 163 18.1591C163.606 18.1591 164.134 18.2917 164.585 18.5568C165.036 18.822 165.386 19.2008 165.636 19.6932C165.886 20.1818 166.011 20.7652 166.011 21.4432V27H163.591V21.875C163.595 21.3409 163.458 20.9242 163.182 20.625C162.905 20.322 162.525 20.1705 162.04 20.1705C161.714 20.1705 161.426 20.2405 161.176 20.3807C160.93 20.5208 160.737 20.7254 160.597 20.9943C160.46 21.2595 160.39 21.5795 160.386 21.9545ZM175.18 20.7614L172.964 20.8977C172.927 20.7083 172.845 20.5379 172.72 20.3864C172.595 20.2311 172.43 20.108 172.226 20.017C172.025 19.9223 171.785 19.875 171.504 19.875C171.129 19.875 170.813 19.9545 170.555 20.1136C170.298 20.2689 170.169 20.4773 170.169 20.7386C170.169 20.947 170.252 21.1231 170.419 21.267C170.586 21.411 170.872 21.5265 171.277 21.6136L172.857 21.9318C173.705 22.1061 174.338 22.3864 174.754 22.7727C175.171 23.1591 175.379 23.6667 175.379 24.2955C175.379 24.8674 175.211 25.3693 174.874 25.8011C174.54 26.233 174.082 26.5701 173.499 26.8125C172.919 27.0511 172.25 27.1705 171.493 27.1705C170.338 27.1705 169.417 26.9299 168.732 26.4489C168.05 25.964 167.65 25.3049 167.533 24.4716L169.913 24.3466C169.985 24.6989 170.16 24.9678 170.436 25.1534C170.713 25.3352 171.067 25.4261 171.499 25.4261C171.923 25.4261 172.264 25.3447 172.521 25.1818C172.783 25.0152 172.915 24.8011 172.919 24.5398C172.915 24.3201 172.822 24.1402 172.641 24C172.459 23.8561 172.179 23.7462 171.8 23.6705L170.288 23.3693C169.436 23.1989 168.802 22.9034 168.385 22.483C167.972 22.0625 167.766 21.5265 167.766 20.875C167.766 20.3144 167.917 19.8314 168.22 19.4261C168.527 19.0208 168.957 18.7083 169.51 18.4886C170.067 18.2689 170.718 18.1591 171.464 18.1591C172.567 18.1591 173.434 18.392 174.067 18.858C174.703 19.3239 175.074 19.9583 175.18 20.7614ZM178.318 27.1477C177.943 27.1477 177.621 27.0152 177.352 26.75C177.087 26.4811 176.955 26.1591 176.955 25.7841C176.955 25.4129 177.087 25.0947 177.352 24.8295C177.621 24.5644 177.943 24.4318 178.318 24.4318C178.682 24.4318 179 24.5644 179.273 24.8295C179.545 25.0947 179.682 25.4129 179.682 25.7841C179.682 26.0341 179.617 26.2633 179.489 26.4716C179.364 26.6761 179.199 26.8409 178.994 26.9659C178.79 27.0871 178.564 27.1477 178.318 27.1477ZM178.318 21.0341C177.943 21.0341 177.621 20.9015 177.352 20.6364C177.087 20.3712 176.955 20.0492 176.955 19.6705C176.955 19.2992 177.087 18.983 177.352 18.7216C177.621 18.4564 177.943 18.3239 178.318 18.3239C178.682 18.3239 179 18.4564 179.273 18.7216C179.545 18.983 179.682 19.2992 179.682 19.6705C179.682 19.9242 179.617 20.1553 179.489 20.3636C179.364 20.5682 179.199 20.7311 178.994 20.8523C178.79 20.9735 178.564 21.0341 178.318 21.0341ZM187.724 15.3636L190.071 19.3295H190.162L192.52 15.3636H195.298L191.747 21.1818L195.378 27H192.548L190.162 23.0284H190.071L187.685 27H184.866L188.509 21.1818L184.935 15.3636H187.724ZM199.162 15.3636L201.509 19.3295H201.599L203.957 15.3636H206.736L203.185 21.1818L206.815 27H203.986L201.599 23.0284H201.509L199.122 27H196.304L199.946 21.1818L196.372 15.3636H199.162ZM210.599 15.3636L212.946 19.3295H213.037L215.395 15.3636H218.173L214.622 21.1818L218.253 27H215.423L213.037 23.0284H212.946L210.56 27H207.741L211.384 21.1818L207.81 15.3636H210.599ZM222.037 15.3636L224.384 19.3295H224.474L226.832 15.3636H229.611L226.06 21.1818L229.69 27H226.861L224.474 23.0284H224.384L221.997 27H219.179L222.821 21.1818L219.247 15.3636H222.037ZM233.474 15.3636L235.821 19.3295H235.912L238.27 15.3636H241.048L237.497 21.1818L241.128 27H238.298L235.912 23.0284H235.821L233.435 27H230.616L234.259 21.1818L230.685 15.3636H233.474Z" fill="white"/>
</svg>
